<svg width="73" height="29" viewBox="0 0 73 29" fill="none" xmlns="http://www.w3.org/2000/svg">
<path d="M51.0627 20.2056V2.6167H54.601V20.2056H51.0627Z" fill="#F7A600"/>
<path d="M9.85131 25.4292H2.27197V7.84033H9.54404C13.0823 7.84033 15.1401 9.76776 15.1401 12.7846C15.1401 14.7399 13.8179 15.997 12.9054 16.416C13.9948 16.9095 15.4008 18.0175 15.4008 20.3732C15.4008 23.6508 13.0823 25.4292 9.85131 25.4292ZM9.27401 10.9037H5.81955V14.9541H9.27401C10.7731 14.9541 11.6111 14.1347 11.6111 12.9243C11.6111 11.7138 10.7731 10.9037 9.27401 10.9037ZM9.49748 18.0361H5.81024V22.3565H9.49748C11.099 22.3565 11.8625 21.3695 11.8625 20.1777C11.8625 18.9859 11.099 18.0361 9.49748 18.0361Z" fill="white"/>
<path d="M26.1832 18.213V25.4292H22.6729V18.213L17.2258 7.84033H21.0621L24.442 14.9262L27.7754 7.84033H31.6117L26.1832 18.213Z" fill="white"/>
<path d="M41.6492 25.4292H34.0698V7.84033H41.3419C44.8802 7.84033 46.9379 9.76776 46.9379 12.7846C46.9379 14.7399 45.6157 15.997 44.7032 16.416C45.7927 16.9095 47.1987 18.0175 47.1987 20.3732C47.1893 23.6508 44.8802 25.4292 41.6492 25.4292ZM41.0626 10.9037H37.6081V14.9541H41.0626C42.5617 14.9541 43.3997 14.1347 43.3997 12.9243C43.3997 11.7138 42.5617 10.9037 41.0626 10.9037ZM41.286 18.0361H37.5988V22.3565H41.286C42.8876 22.3565 43.6511 21.3695 43.6511 20.1777C43.6511 18.9859 42.8969 18.0361 41.286 18.0361Z" fill="white"/>
<path d="M65.9885 10.9037V25.4292H62.4503V10.9037H57.7295V7.84033H70.7186V10.9037H65.9885Z" fill="white"/>
</svg>
