<svg width="227" height="223" viewBox="0 0 227 223" fill="none" xmlns="http://www.w3.org/2000/svg">
<path fill-rule="evenodd" clip-rule="evenodd" d="M90.6244 3.24385C90.064 3.92226 88.6335 4.32034 87.8348 4.54262L87.7944 4.55385C87.7544 4.55385 83.7444 5.72385 83.5644 5.96385C82.4544 7.45385 85.2444 7.93385 85.2744 7.92386C92.1844 7.41385 92.2744 7.49385 92.7544 7.92386C92.7944 7.95385 96.0044 11.5239 94.9544 13.4639C94.5344 14.2539 94.5344 14.2839 94.5544 14.3939C94.598 14.6226 94.7662 14.7357 94.9329 14.8478C95.0723 14.9415 95.2107 15.0345 95.2744 15.1939C95.3752 15.4413 95.3837 15.7056 95.3921 15.9693C95.402 16.2811 95.4119 16.5921 95.5744 16.8739C95.8839 16.8024 96.1726 16.6454 96.4617 16.4882C97.0226 16.1831 97.5851 15.8771 98.3044 16.1939C100.154 17.0139 99.3044 18.5139 99.2844 18.5239C98.9267 18.9475 98.4315 19.1629 97.9357 19.3786C97.3781 19.6211 96.8196 19.864 96.4544 20.4039C96.0744 20.9639 95.7044 22.4939 95.9944 23.3939C96.1244 23.8139 101.524 32.9639 104.114 33.8339C110.581 35.0732 110.714 34.924 111.134 34.4546L111.134 34.4539C111.824 33.6839 112.984 27.7738 112.994 27.7139C113.062 27.3691 113.03 27.0164 112.999 26.664C112.951 26.1272 112.903 25.591 113.204 25.0839C113.464 24.6439 113.494 24.6339 115.114 24.1439C118.508 23.1172 120.251 22.2805 120.344 21.6339C120.474 20.6439 120.554 20.0939 121.474 19.6239C122.579 19.0615 123.768 18.7394 124.958 18.4172C126.158 18.0919 127.359 17.7665 128.474 17.1939C128.807 17.022 129.151 16.8728 129.494 16.7239C130.088 16.4657 130.682 16.2081 131.214 15.8339C131.234 15.8239 131.654 15.5139 131.134 14.8439C130.768 14.3713 130.311 13.9964 129.854 13.6216C129.363 13.2191 128.872 12.8168 128.494 12.2939C128.216 11.9152 128.11 11.4771 128.003 11.0374C127.929 10.7339 127.855 10.4297 127.724 10.1439C127.354 9.33386 127.514 9.11385 127.974 8.65386C128.604 8.01386 128.164 7.75385 126.874 6.99385C122.644 4.49385 122.604 4.43385 122.244 3.87386L122.26 3.83562C122.278 3.79145 122.299 3.73973 122.314 3.69386C122.322 3.69122 122.331 3.68823 122.34 3.68498C122.358 3.67828 122.378 3.67048 122.399 3.6624C122.444 3.64479 122.493 3.62573 122.534 3.61385C122.043 3.12994 121.346 2.9931 120.648 2.85601C119.601 2.6503 118.55 2.44402 118.184 1.06385C118.096 1.02285 117.988 0.967839 117.891 0.917966C117.845 0.894856 117.802 0.872853 117.764 0.853856C117.784 0.743855 117.824 0.603856 117.854 0.503853C117.879 0.498852 117.909 0.491349 117.939 0.483845C117.969 0.476349 117.999 0.468854 118.024 0.463853C117.464 0.393853 115.864 0.283852 115.854 0.283852C114.784 0.223855 113.434 0.453854 113.174 0.503853C112.641 0.601388 112.157 0.442174 111.673 0.283047C111.313 0.164822 110.954 0.0466429 110.574 0.0338522C109.324 -0.00614489 106.564 -0.016147 105.474 0.0338522C104.128 0.107186 103.378 0.197186 103.224 0.303853C101.758 0.383855 100.674 0.490521 99.9744 0.623852C99.9744 0.623852 99.9244 0.613854 99.9144 0.633855H99.9344C99.9544 0.633855 99.9844 0.633855 100.004 0.643853C100.864 0.710522 101.421 0.773854 101.674 0.833855C101.601 0.84052 101.088 0.837189 100.134 0.823853C99.5444 0.823853 99.3244 0.823853 98.6244 0.883855C93.7817 1.4282 90.2249 2.92383 89.7728 3.11394L89.7343 3.13003L89.7273 3.13285L89.7244 3.13385C89.8444 3.20052 90.1511 3.23385 90.6444 3.23385L90.6244 3.24385ZM100.554 2.08386C101.864 6.18385 102.814 14.8339 104.114 33.8339C102.684 12.7839 101.734 5.69386 100.554 2.08386Z" fill="url(#paint0_linear_156_1592)" fill-opacity="0.6"/>
<path d="M62.1043 11.0041C62.2843 10.9641 62.4676 10.9041 62.6543 10.8241C62.6543 10.8241 62.9243 10.7141 63.3243 10.5041C63.3243 10.5041 63.7843 10.2641 63.8543 10.2041L63.7543 10.2141C63.7543 10.2141 62.0543 10.8241 60.5243 11.6441L61.3843 11.3141C61.4667 11.2798 61.5479 11.2395 61.6296 11.1991C61.7856 11.1218 61.9437 11.0435 62.1143 11.0041H62.1043Z" fill="url(#paint1_linear_156_1592)" fill-opacity="0.6"/>
<path d="M59.2536 12.2541C59.2737 12.2441 59.3237 12.2441 59.3237 12.2441C59.3137 12.2941 58.9637 12.5141 58.8936 12.5541C58.7536 12.6341 58.5937 12.6841 58.5636 12.6641C58.5336 12.6441 58.6037 12.5641 58.6736 12.5241C58.7337 12.4841 59.0937 12.3141 59.2536 12.2541Z" fill="url(#paint2_linear_156_1592)" fill-opacity="0.6"/>
<path d="M60.694 12.8737C60.774 12.8438 60.8539 12.8438 60.8539 12.8438C60.9539 12.8638 61.0139 12.9937 60.4939 13.3537C59.5439 14.0137 59.224 13.8737 59.224 13.8737C59.2039 13.8638 59.2439 13.8238 59.284 13.7938C59.2887 13.7938 59.4386 13.6691 59.6008 13.5341L59.6025 13.5326C59.7804 13.3846 59.9726 13.2246 60.004 13.2038C60.0639 13.1538 60.444 12.9637 60.694 12.8737Z" fill="url(#paint3_linear_156_1592)" fill-opacity="0.6"/>
<path d="M60.2939 12.0238H60.3139L60.3239 12.0137C60.3139 12.0438 60.3039 12.0837 60.3039 12.1138C60.1939 12.1937 58.2239 13.1538 58.0839 13.1237C58.3239 12.9038 59.7539 11.9637 61.5939 11.3638C61.6239 11.3537 61.6839 11.3438 61.7239 11.3438L61.6339 11.4037C61.5081 11.4745 61.2958 11.5638 61.1087 11.6425C61.0578 11.6639 61.0088 11.6845 60.9639 11.7038C60.3439 11.9738 60.3239 11.9937 60.2939 12.0238Z" fill="url(#paint4_linear_156_1592)" fill-opacity="0.6"/>
<path d="M62.1839 11.8439C62.1839 11.8439 62.2639 11.7939 62.2939 11.7639C62.3235 11.7393 62.3506 11.7098 62.3788 11.6791C62.408 11.6474 62.4384 11.6143 62.4739 11.5839C62.5289 11.5339 62.5864 11.4864 62.6439 11.4389C62.7014 11.3914 62.7589 11.3439 62.8139 11.2939C62.8839 11.2339 62.8839 11.2239 62.8839 11.2139H62.8239C62.4539 11.3339 61.8039 11.8139 61.7639 11.8639C61.8039 11.8839 61.7706 11.9705 61.6639 12.1239C61.7132 12.1239 62.1798 11.8424 62.1936 11.8245L62.1839 11.8439Z" fill="url(#paint5_linear_156_1592)" fill-opacity="0.6"/>
<path d="M57.4637 15.2439C57.5037 15.2239 57.5837 15.2239 57.5837 15.2239L57.5737 15.2139C57.6637 15.2339 57.5537 15.3439 57.4237 15.4339C57.0737 15.6839 56.2537 16.0139 56.1737 16.0139V16.0039C56.2037 15.9639 56.7137 15.5839 57.1537 15.3639C57.1537 15.3639 57.2937 15.2939 57.4637 15.2439Z" fill="url(#paint6_linear_156_1592)" fill-opacity="0.6"/>
<path d="M58.4139 17.1146C58.4139 17.1146 58.3239 17.0546 58.0839 17.0846C58.0639 17.0846 58.0389 17.0896 58.0139 17.0946C57.9889 17.0996 57.9639 17.1046 57.9439 17.1046L56.7439 17.3446C56.2539 17.4546 54.6639 18.2046 54.4439 18.5146V18.5446C54.4968 18.5609 54.5514 18.5589 54.6063 18.5569C54.6862 18.5541 54.7668 18.5512 54.8439 18.6046C55.0339 18.7346 54.9839 18.8246 54.9439 18.8846C54.8739 18.9946 53.8139 19.7846 53.5339 19.9346C53.4139 19.9946 53.4039 19.9946 53.3339 19.9946C53.2895 19.8226 53.3836 19.7153 53.4779 19.6077C53.5536 19.5213 53.6294 19.4348 53.6339 19.3146C53.4339 19.3446 52.4539 19.8646 52.3439 20.1346L52.3412 20.1422L52.3373 20.1529C52.3273 20.1796 52.3158 20.2104 52.3239 20.2346C52.3512 20.3393 52.391 20.4379 52.4309 20.5368C52.4787 20.655 52.5267 20.7739 52.5539 20.9046C52.5611 20.937 52.5735 20.9682 52.586 20.9994C52.6081 21.0549 52.6303 21.1106 52.6239 21.1746C52.6239 21.2488 52.6029 21.321 52.5818 21.3939C52.5545 21.488 52.527 21.5831 52.5439 21.6846C52.5439 21.7146 52.5639 21.7546 52.5839 21.7746C52.8839 22.0846 55.5539 20.5246 56.2839 19.7946C56.4439 19.6346 56.9039 18.7046 56.6039 18.7146C56.3943 18.7207 56.2038 18.7877 56.0135 18.8545C55.895 18.8961 55.7767 18.9377 55.6539 18.9646C55.9688 18.7513 56.3043 18.5715 56.6408 18.3912C56.9669 18.2165 57.2939 18.0413 57.6039 17.8346C57.6039 17.8346 58.3939 17.1646 58.4039 17.1146H58.4139Z" fill="url(#paint7_linear_156_1592)" fill-opacity="0.6"/>
<path d="M52.5103 15.9996C51.9418 16.3631 51.3738 16.7262 50.7544 17.0039L50.8044 16.9539C50.6184 17.0432 50.4518 17.1656 50.2855 17.2879C50.0048 17.4942 49.7249 17.6999 49.3544 17.7439C50.5344 16.7739 56.0444 13.8139 56.8744 13.4439C56.9144 13.4139 56.9844 13.4039 57.0244 13.4139C56.9044 13.5639 56.7944 13.6339 56.7144 13.6739L52.8244 15.8939C52.8644 15.8472 53.2677 15.5839 54.0344 15.1039C53.5031 15.3649 53.0065 15.6824 52.5103 15.9996Z" fill="url(#paint8_linear_156_1592)" fill-opacity="0.6"/>
<path d="M50.7138 25.2139C50.6538 25.2339 50.5838 25.2739 50.4538 25.3739C50.2441 25.5374 50.0556 25.7256 49.8667 25.914C49.6052 26.175 49.3432 26.4364 49.0238 26.6339C48.1038 27.1939 47.8338 27.3639 47.7938 27.4939L47.8138 27.5139C47.8838 27.5139 47.9538 27.5139 48.1738 27.4639C48.5238 27.3939 48.5638 27.3939 48.6338 27.4439C48.6869 27.4792 48.7106 27.538 48.7344 27.597C48.7644 27.6714 48.7945 27.746 48.8838 27.7739C48.9338 27.7939 49.1838 27.7739 49.4338 27.7239C51.0138 27.4339 51.6738 26.7839 51.6738 26.7739C51.8538 26.5639 51.4138 25.7439 51.4138 25.7439C51.2238 25.4139 50.8238 25.2139 50.7738 25.2139H50.7138Z" fill="url(#paint9_linear_156_1592)" fill-opacity="0.6"/>
<path d="M52.7145 18.5937C52.8745 18.5537 52.9845 18.5537 52.9845 18.5537L52.9745 18.5637C53.1445 18.5737 53.0445 18.7337 52.6445 19.0937C52.5545 19.1737 51.7145 19.9137 51.4245 20.0037C51.2445 20.0537 51.3745 19.7737 51.4245 19.6737C51.5045 19.5037 51.5045 19.4937 51.4845 19.4337C51.4308 19.4069 51.3726 19.4161 51.3159 19.425C51.2882 19.4294 51.2608 19.4337 51.2345 19.4337L51.2245 19.4237C51.2645 19.3437 51.8645 18.8237 52.7145 18.5937Z" fill="url(#paint10_linear_156_1592)" fill-opacity="0.6"/>
<path d="M70.7638 24.1038C71.2638 24.0238 71.3738 24.3438 71.1138 25.0438H71.1038L71.0979 25.0578C71.0233 25.2366 70.2769 27.0268 69.7038 26.6638C69.4638 26.5138 68.8538 25.5338 69.0038 25.1538C69.2838 24.4938 70.7538 24.1038 70.7638 24.1038Z" fill="url(#paint11_linear_156_1592)" fill-opacity="0.6"/>
<path d="M81.1613 4.3705C81.24 4.34086 81.3184 4.31115 81.3967 4.28111C79.7906 4.70286 79.737 4.6809 79.5343 4.58434C79.9543 4.08434 84.0643 3.08434 84.4142 3.12434C84.9142 3.18434 85.0843 3.13434 85.2843 3.07434C85.2142 3.04433 85.1342 2.97434 85.0943 2.91434C86.1243 2.51434 90.9043 1.69434 90.9543 1.69434C90.9565 1.69434 90.9848 1.69104 91.0348 1.68522C91.4205 1.64024 93.1008 1.44434 94.1543 1.44434C93.5594 1.59911 92.9551 1.72113 92.3505 1.84321C91.7051 1.97354 91.0594 2.10394 90.4243 2.27434C90.9043 2.23434 90.9843 2.22434 92.2643 2.04433C92.0043 2.12434 87.0243 3.67434 87.0243 3.67434C87.2776 3.62767 87.4643 3.60767 87.5843 3.61433C86.8943 4.06434 85.8943 4.33434 83.6943 4.90434C83.7142 4.90933 83.7342 4.91681 83.7541 4.92429C83.7741 4.93179 83.7943 4.93934 83.8143 4.94434C83.7943 5.14434 82.9543 6.03434 80.5843 6.60434C80.1943 6.70433 78.4342 7.81434 78.2343 8.09434C78.259 8.09984 78.286 8.10534 78.3141 8.11105C78.388 8.12608 78.4691 8.1426 78.5343 8.16434C78.7743 8.82434 76.1143 10.1143 75.2843 9.94434C75.4576 9.811 75.5742 9.671 75.6342 9.52434C74.8199 9.34844 74.1117 9.62666 73.4017 9.90556C73.0219 10.0548 72.6416 10.2042 72.2443 10.2843C70.7181 10.5816 70.5472 10.5745 70.3107 10.5646L70.3043 10.5643C70.2843 10.5243 70.2543 10.4843 70.2343 10.4543C70.6696 10.0248 71.2195 9.82439 71.7685 9.62426C72.1654 9.4796 72.5618 9.3351 72.9142 9.10434L72.9145 9.10271C72.9546 8.83209 73.0372 8.27426 74.5143 8.23434C74.6643 8.40434 74.8943 8.65434 76.8443 7.59434C75.7142 8.01434 75.5843 8.03434 75.2443 8.07434C75.2485 8.05744 75.2563 8.03877 75.2639 8.02057C75.2742 7.99567 75.2843 7.97167 75.2843 7.95434C75.1607 7.87571 75.0182 7.85386 74.8763 7.83209C74.7655 7.81511 74.6551 7.79817 74.5543 7.75434C74.6543 7.67434 77.3043 6.13434 78.3242 6.44434C78.6543 6.14434 78.8343 5.48434 78.8343 5.35434C79.0143 5.21434 79.1443 5.11433 79.5943 5.01434C81.5242 4.60434 83.3343 4.00434 85.6243 3.24434L85.3852 3.3097L85.3839 3.31007C84.4238 3.5727 81.5498 4.35898 80.5943 4.58434C80.6453 4.56481 80.6962 4.54551 80.7468 4.52636L80.8942 4.47086L81.1613 4.3705Z" fill="url(#paint12_linear_156_1592)" fill-opacity="0.6"/>
<path d="M62.2695 12.6559C62.3033 12.597 62.337 12.5382 62.3742 12.4845L62.3842 12.5045C62.3842 12.4845 62.4042 12.4645 62.4242 12.4645C62.5842 12.3745 64.1742 11.9045 64.1742 11.9045C64.2408 11.8912 64.3008 11.8912 64.3542 11.9045C64.3205 11.9635 64.301 11.9799 64.1405 12.1148L64.0342 12.2045C63.234 12.867 62.6758 13.3455 62.3596 13.6401C62.3617 13.6364 62.3629 13.6328 62.3635 13.63L62.364 13.6269L62.3642 13.6245C62.3942 13.5245 62.3642 13.4645 62.3642 13.4645C61.6842 14.0512 61.2942 14.3745 61.1942 14.4345C60.9642 14.5645 59.1642 15.2245 59.1642 15.2245L59.1542 15.2045C59.2592 14.8799 60.4767 14.1996 61.0216 13.8951L61.0942 13.8545C59.9809 14.2012 59.4208 14.3645 59.4142 14.3445C59.4075 14.3245 59.4275 14.2679 59.4742 14.1745C59.4271 14.1484 59.3799 14.1606 59.3343 14.1724C59.2927 14.1831 59.2523 14.1936 59.2142 14.1745C59.4355 14.0474 59.6771 13.9607 59.9195 13.8736C60.2684 13.7483 60.6192 13.6224 60.9142 13.3745V13.3245H60.7742C61.2042 12.8745 61.6242 12.8345 61.6642 12.8545C61.6642 12.9112 61.6441 12.9579 61.6253 13.0016C61.6175 13.0196 61.61 13.037 61.6042 13.0545C61.5542 13.1845 61.4842 13.3545 61.4342 13.4745C61.9442 13.0845 61.9642 13.0645 62.1142 12.8945C62.1729 12.8241 62.2213 12.7398 62.2695 12.6559Z" fill="url(#paint13_linear_156_1592)" fill-opacity="0.6"/>
<path d="M62.3442 13.6545C62.3519 13.6507 62.3567 13.6453 62.3596 13.6401L62.3442 13.6545Z" fill="url(#paint14_linear_156_1592)" fill-opacity="0.6"/>
<path d="M79.7043 25.1544C80.3971 25.0982 81.8613 26.8914 82.0616 27.1369C82.0753 27.1536 82.0831 27.1631 82.0843 27.1644C82.4743 27.6744 82.8743 28.1944 83.2443 28.1244C84.2643 27.9344 85.7843 24.0444 85.7943 24.0044C85.8343 23.8844 85.8643 23.7144 85.8543 23.5944L78.4143 21.9044L78.4225 21.8982C78.6298 21.7402 78.8474 21.5742 80.6143 20.7944L80.706 20.7533C81.4256 20.4307 81.7931 20.266 81.7643 20.0644C81.7043 19.5344 79.0843 17.0544 77.8243 16.8544C77.6164 16.821 77.403 16.8234 77.1886 16.8258C76.8257 16.83 76.4601 16.8341 76.1143 16.6644C75.8645 16.5438 75.7352 16.3007 75.6059 16.0574C75.435 15.736 75.264 15.4142 74.8143 15.3744C74.0984 15.3155 72.584 15.8819 71.4411 16.3094L71.3743 16.3344C70.2356 16.7663 70.2051 16.7646 70.0341 16.7549L70.0243 16.7544C69.9443 16.5644 69.8643 16.3744 69.7943 14.6844C69.3243 14.5044 67.8543 14.7444 67.4143 14.8344C65.1743 15.3644 58.4943 20.9544 59.7543 21.8144C60.9943 22.6644 65.2843 21.7844 65.8543 21.5144C65.7643 21.1544 65.7143 20.9244 67.5843 20.7144C69.1542 20.5455 69.4012 20.1594 69.5612 19.9092L69.5643 19.9044C69.9443 20.1044 70.9743 20.9944 70.9743 20.9944C71.2599 21.3011 71.4588 21.6666 71.6583 22.0332C71.8359 22.3596 72.0141 22.687 72.2543 22.9744C72.4874 23.2548 72.8318 23.4211 73.1761 23.5874C73.7773 23.8778 74.378 24.1678 74.3843 25.0644C74.3843 25.0944 74.0643 28.2544 69.6643 29.5744C69.1544 29.725 68.6281 29.807 68.1021 29.889C67.2664 30.0192 66.4315 30.1493 65.6643 30.5544C65.1143 30.8444 65.0943 31.7744 65.2543 31.9144C65.4943 32.1344 66.2743 32.2244 68.5843 31.4444C69.7643 31.0444 71.401 31.3044 73.4943 32.2244C73.3277 32.4044 72.821 32.6511 71.9743 32.9644C72.6643 33.5744 78.0443 34.6944 79.1443 34.0844C79.1177 33.9777 79.011 33.8777 78.8243 33.7844C78.6377 33.691 77.7943 32.9244 76.2943 31.4844C78.1643 31.6844 78.7443 31.9244 79.8143 32.6444L79.8503 32.6684C80.0406 32.7956 80.1707 32.8826 80.2743 32.8544C80.8743 32.6644 81.8743 30.4144 81.3943 29.9144C80.9771 29.4771 80.4134 29.2394 79.8498 29.0017C79.0086 28.647 78.1676 28.2924 77.8143 27.2744C77.3452 25.9436 79.4977 25.1994 79.6994 25.1297C79.7084 25.1266 79.7135 25.1248 79.7143 25.1244L79.7043 25.1544Z" fill="url(#paint15_linear_156_1592)" fill-opacity="0.6"/>
<path d="M56.2037 14.1939C55.8637 14.4039 55.4437 14.6039 55.3837 14.5539H55.3937C55.4037 14.4839 56.2037 14.1139 56.3637 14.0539C56.3837 14.0439 56.3937 14.0439 56.4137 14.0439C56.3837 14.0739 56.2737 14.1539 56.2037 14.1939Z" fill="url(#paint16_linear_156_1592)" fill-opacity="0.6"/>
<path d="M96.5539 18.7444L97.6939 18.5144C97.6939 18.5144 97.9939 18.3844 98.0639 18.1644C98.1139 18.0244 98.0639 17.9344 98.0139 17.8644C97.9592 17.7714 97.8716 17.7143 97.7838 17.6571C97.7111 17.6097 97.6383 17.5623 97.5839 17.4944C97.5039 17.4044 97.5039 17.3144 97.5039 17.2644C97.5039 17.2444 97.5039 17.2244 97.4839 17.2144C97.4839 17.2144 97.3339 17.1144 96.9339 17.1644C96.4239 17.2744 94.9739 18.1144 95.7639 18.6044C95.9339 18.7144 96.2339 18.8044 96.5539 18.7444Z" fill="url(#paint17_linear_156_1592)" fill-opacity="0.6"/>
<path d="M74.2936 14.8043C74.2936 14.8143 74.2736 14.8243 74.2736 14.8243C74.2536 14.8443 71.7436 16.0343 70.9636 15.3943C70.7236 15.1943 70.4036 14.5043 71.4236 14.3343C72.5936 14.1543 74.1736 14.6243 74.2936 14.8043Z" fill="url(#paint18_linear_156_1592)" fill-opacity="0.6"/>
<path d="M66.2843 9.49445C65.9643 9.61445 65.4243 9.84445 65.3143 9.92445C65.3643 9.92445 65.4143 9.90445 65.4643 9.88445C65.9643 9.72445 66.4643 9.76445 66.4643 9.76445C66.44 9.85215 66.3705 9.89475 66.3011 9.93734C66.228 9.98218 66.1548 10.027 66.1343 10.1245C66.1943 10.2145 67.0543 9.86445 67.1143 9.83445C67.4243 9.67445 68.4243 8.80446 68.4243 8.63445C68.3499 8.61155 68.282 8.63783 68.2132 8.66447C68.1618 8.68436 68.1099 8.70445 68.0543 8.70445C68.1146 8.58394 68.2259 8.53244 68.3372 8.48092C68.4291 8.43839 68.521 8.39585 68.5843 8.31445L68.4943 8.32446C67.5943 8.61445 66.4143 9.16446 66.2643 9.25446C66.3754 9.28777 66.4803 9.25634 66.5841 9.22522C66.6673 9.20029 66.7498 9.17556 66.8343 9.18445C66.8643 9.25445 66.7543 9.31445 66.2843 9.49445Z" fill="url(#paint19_linear_156_1592)" fill-opacity="0.6"/>
<path d="M62.0144 14.6542C61.6844 14.4442 61.7544 14.3942 61.9744 14.2442C62.0644 14.1742 63.6644 13.2542 64.2344 13.0942C64.2744 13.0742 64.3344 13.0742 64.3744 13.0742C64.7044 13.1042 63.9844 13.8442 63.6344 14.1442C63.0144 14.6742 62.2944 14.8342 62.0144 14.6542Z" fill="url(#paint20_linear_156_1592)" fill-opacity="0.6"/>
<path d="M71.7444 8.89402C71.7444 8.89402 71.7344 8.88402 71.7344 8.87402C71.7044 8.87402 71.6745 8.87402 71.6544 8.88403C71.6344 8.88403 71.6044 8.89402 71.5844 8.90402C71.3447 8.97698 71.1077 9.06081 70.872 9.14418C70.6554 9.22077 70.4399 9.29698 70.2245 9.36402C69.9595 9.44402 69.692 9.51152 69.4245 9.57902C69.157 9.64652 68.8895 9.71402 68.6245 9.79402C68.2444 9.91403 68.0145 9.99402 67.9344 10.044C68.0744 10.074 69.6245 9.82403 70.4445 9.59403C70.8544 9.47402 71.0544 9.40402 71.6144 9.01402C71.6644 8.98403 71.7144 8.94402 71.7545 8.90402L71.7444 8.89402Z" fill="url(#paint21_linear_156_1592)" fill-opacity="0.6"/>
<path d="M67.924 9.7241C67.9139 9.7141 67.9139 9.7041 67.9139 9.7041H67.924C68.023 9.45654 68.1906 9.39529 68.6988 9.20963L68.7139 9.2041C68.9622 9.11326 69.1445 8.93071 69.3275 8.74755C69.4465 8.62828 69.5659 8.50875 69.7039 8.4141C69.8039 8.3341 69.8839 8.2941 69.9439 8.2741C69.9597 8.26936 69.9738 8.26487 69.9865 8.26079C70.0547 8.23903 70.0866 8.22884 70.1539 8.2541C70.2039 8.2641 70.2239 8.2941 70.2239 8.2941V8.3141C70.2444 8.34827 70.2369 8.38244 70.2301 8.41341C70.2269 8.42777 70.2239 8.44143 70.2239 8.4541C70.2289 8.50369 70.2683 8.51639 70.3067 8.52879C70.3458 8.54139 70.3839 8.55369 70.3839 8.6041C70.3739 8.6941 70.3339 8.7341 70.1339 8.8241C69.6739 9.0441 68.0939 9.7041 67.924 9.7241Z" fill="url(#paint22_linear_156_1592)" fill-opacity="0.6"/>
<path d="M71.5844 7.32461C72.6946 6.76954 72.7043 6.75483 72.7239 6.7254C72.6839 6.7254 72.6444 6.73461 72.6044 6.74461C72.5944 6.74461 71.4744 7.10461 71.1444 7.26461C70.7744 7.45461 70.8944 7.57461 70.8944 7.57461C70.9677 7.61124 71.192 7.50526 71.4904 7.36424L71.5744 7.32461H71.5844Z" fill="url(#paint23_linear_156_1592)" fill-opacity="0.6"/>
<path d="M74.7944 6.68449C74.6344 6.62449 74.4844 6.65449 74.0044 6.80449V6.82449C73.9907 6.82824 73.9636 6.83602 73.9265 6.84668L73.9242 6.84736C73.6613 6.92292 72.9129 7.1381 72.8344 7.09449L72.8367 7.09213C72.8725 7.05341 73.3124 6.57822 74.1744 6.38449C74.4344 6.33449 75.0244 6.19449 75.2444 6.01449C75.2304 6.0173 75.2165 6.02038 75.2027 6.02363C75.1745 6.03031 75.1467 6.03772 75.1193 6.04508C75.0175 6.07231 74.9186 6.09876 74.8044 6.08449C75.0944 5.89449 78.0044 4.80449 78.8044 4.60449H78.9444C78.8782 4.69107 78.7861 4.74911 78.6931 4.80769C78.6035 4.86413 78.5132 4.92107 78.4444 5.00449C78.478 5.16579 78.3761 5.24127 78.2753 5.31593C78.2262 5.35235 78.1772 5.38858 78.1444 5.43449C78.1827 5.46634 78.229 5.46979 78.2757 5.47326C78.3023 5.47524 78.329 5.47723 78.3544 5.48449L78.3534 5.48761C78.3342 5.54562 78.3229 5.57991 77.6744 5.88449C77.5944 5.91449 77.5144 5.95449 77.4344 6.00449C77.4444 6.01449 77.4444 6.03449 77.4444 6.03449L77.8144 6.13449C77.8086 6.14035 77.8002 6.14706 77.7904 6.15413C77.7749 6.16542 77.7559 6.17762 77.7387 6.18868L77.7144 6.20449C77.4632 6.32742 77.1949 6.40465 76.9262 6.48197C76.6922 6.54932 76.4579 6.61674 76.2344 6.71449C75.8982 6.86296 75.5791 7.04574 75.2597 7.22871C74.8477 7.46476 74.4351 7.70112 73.9844 7.86449C73.8108 7.92764 73.6316 7.9354 73.4527 7.94316C73.2916 7.95014 73.1308 7.95711 72.9744 8.00449L72.1144 8.22449C71.9844 8.16449 72.0144 7.82449 72.3044 7.64449C72.3944 7.59449 72.7244 7.44449 74.0144 7.03449L74.0461 7.02438C74.4917 6.88219 74.6476 6.83244 74.7844 6.74449C74.7944 6.72449 74.7944 6.70449 74.7944 6.68449Z" fill="url(#paint24_linear_156_1592)" fill-opacity="0.6"/>
<path d="M64.7738 14.2843C64.8438 14.2843 72.9538 13.4543 75.0938 11.3243C75.6738 10.7443 74.2439 10.6643 74.2238 10.6643C73.4738 10.6443 69.8338 11.9043 69.0838 12.2043C68.4138 12.4743 67.8838 11.8543 68.0238 11.6843C68.0838 11.6143 68.1938 11.5743 68.4438 11.5043C69.7538 11.1343 69.1039 10.7143 68.9638 10.7143C68.7668 10.7027 68.5831 10.7684 68.4012 10.8335C68.2693 10.8806 68.1384 10.9275 68.0038 10.9443C67.8097 10.9698 67.6181 10.9432 67.4252 10.9163C67.2405 10.8906 67.0546 10.8647 66.8638 10.8843C66.7538 10.8943 66.3638 10.9443 66.1238 11.0143C65.9238 11.0943 65.2838 11.7643 65.2938 11.9243C65.4638 11.9243 65.4738 11.9243 65.7938 11.8143C66.1538 11.6843 66.6538 11.5143 66.7638 11.5843C66.9638 11.7143 66.3238 12.5443 66.2838 12.5743C66.1019 12.7426 65.889 12.8633 65.677 12.9834C65.4229 13.1275 65.1701 13.2708 64.9738 13.4943C64.2638 14.3043 64.5538 14.3043 64.7738 14.2943V14.2843Z" fill="url(#paint25_linear_156_1592)" fill-opacity="0.6"/>
<path fill-rule="evenodd" clip-rule="evenodd" d="M226.82 111.806L226.82 111.809L226.821 111.814L226.821 111.821L226.821 111.831L226.822 111.844C226.867 112.735 226.91 113.592 226.954 114.384H226.974C226.991 117.11 226.831 120.546 226.69 123.56C226.674 123.899 226.659 124.234 226.644 124.561L226.644 124.509L226.644 124.424C226.384 128.244 226.214 129.654 226.074 130.774L225.734 133.224L225.674 133.614L225.665 133.666C225.606 134.009 225.531 134.451 225.464 134.784C225.494 134.594 225.534 134.344 225.564 134.154C225.464 134.727 224.387 137.227 222.334 141.654C221.987 141.574 221.424 141.717 220.644 142.084C220.52 138.217 220.846 134.348 221.172 130.481V130.473C221.743 123.701 222.313 116.931 220.474 110.174C220.384 110.554 220.134 111.054 219.834 111.304C219.634 109.95 219.441 109.127 219.254 108.834L220.434 122.914C220.662 125.46 220.478 127.996 220.294 130.532C220.154 132.448 220.015 134.364 220.054 136.284C220.065 136.936 220.128 137.585 220.192 138.234C220.295 139.297 220.398 140.359 220.274 141.434C219.914 144.54 219.821 146.214 219.994 146.454C220.754 146.294 221.351 146.284 221.784 146.424C220.924 149.344 217.494 156.794 214.934 159.634C213.304 161.364 207.814 167.364 206.214 171.284C205.814 172.264 201.964 180.134 197.814 184.104C196.932 184.95 195.889 185.567 194.845 186.185C193.841 186.78 192.837 187.375 191.974 188.174C191.143 188.94 190.513 189.861 189.882 190.782C189.345 191.567 188.807 192.353 188.144 193.044L181.784 198.124L176.754 201.664L176.74 201.673C175.475 202.533 171.672 205.12 168.434 204.114C169.153 202.486 169.533 202.095 170.221 201.386L170.224 201.384L170.227 201.38C171.244 200.333 171.431 200.141 177.764 188.864C178.544 187.477 178.996 185.964 179.449 184.451C179.942 182.801 180.436 181.15 181.354 179.664C182.101 178.46 182.978 177.347 183.855 176.234C185.208 174.516 186.56 172.799 187.434 170.754C190.554 163.424 189.794 160.084 189.234 157.644C189.001 156.617 189.651 154.3 191.184 150.694C199.824 152.294 205.484 153.804 209.404 155.714C205.424 153.774 199.914 152.304 191.184 150.694C191.737 149.4 191.791 148.08 191.344 146.734C190.967 146.618 190.57 146.598 190.173 146.579C189.505 146.546 188.838 146.513 188.274 146.024C187.823 145.632 187.76 145.087 187.697 144.54C187.633 143.984 187.568 143.427 187.094 143.034C186.974 142.924 186.774 142.784 186.604 142.764C183.317 142.409 180.147 143.045 176.976 143.681L176.967 143.682C175.134 144.05 173.3 144.418 171.444 144.594C170.424 144.694 165.034 139.544 164.314 138.044C163.73 136.826 163.113 135.624 162.496 134.422C161.304 132.101 160.113 129.781 159.164 127.344C158.622 125.954 159.356 125.024 160.09 124.094C160.656 123.377 161.221 122.66 161.204 121.734C161.185 120.559 160.807 119.458 160.429 118.358C159.99 117.08 159.55 115.801 159.674 114.404C159.674 114.394 165.284 104.664 166.044 103.444C166.304 103.024 168.414 101.384 169.644 100.794C170.551 100.354 171.094 98.4404 171.274 95.0537C171.277 94.9777 171.277 94.8958 171.275 94.8105C171.274 94.7565 171.272 94.7011 171.27 94.6449C171.257 94.2402 171.243 93.7907 171.434 93.5037C171.893 92.8201 172.603 92.4987 173.313 92.177C173.964 91.8824 174.615 91.5875 175.074 91.0137C175.456 90.5371 175.501 89.9595 175.546 89.3811C175.591 88.7945 175.636 88.2071 176.034 87.7237C176.124 87.6126 176.268 87.4966 176.4 87.3892C176.433 87.3633 176.464 87.3379 176.494 87.3132C176.518 87.2929 176.542 87.273 176.564 87.2537C176.564 87.2537 176.574 87.2537 176.804 87.4137C178.084 88.9537 178.494 88.8737 179.674 88.6337C179.754 88.6337 179.834 88.6337 180.294 88.6737C182.346 89.3874 184.215 88.633 186.084 87.8784C188.012 87.0998 189.941 86.3209 192.074 87.1537C192.264 86.8337 192.594 86.4437 192.864 86.1837C195.024 86.677 196.364 86.727 196.884 86.3337C197.464 86.6437 197.664 86.7537 198.624 87.3837C198.871 90.5637 198.834 92.4104 198.514 92.9237C198.314 93.2437 198.044 93.8337 198.244 94.1637C198.874 95.2137 207.734 103.274 208.564 103.884C208.734 103.824 208.944 103.734 209.114 103.664C209.35 103.038 209.357 102.378 209.365 101.719C209.374 100.922 209.384 100.127 209.794 99.3937C211.848 99.4294 212.765 100.905 213.681 102.38C214.561 103.798 215.442 105.216 217.334 105.354C217.564 105.124 218.004 104.934 218.324 104.934C218.694 106.064 218.884 106.314 220.044 106.414C220.924 104.234 220.864 102.984 220.424 94.9137C220.104 94.7937 219.714 94.5237 219.474 94.2737C219.444 94.6237 219.334 95.0937 219.214 95.4237C218.668 95.0876 218.338 94.5753 218.008 94.0626C217.739 93.645 217.47 93.2269 217.084 92.9037C217.094 93.0737 217.104 93.3037 217.104 93.4737C217.015 93.5554 216.913 93.6603 216.819 93.7569C216.775 93.8021 216.732 93.8454 216.694 93.8837C214.066 91.6756 213.545 87.7105 213.265 85.5792L213.264 85.5737C213.198 85.5531 213.124 85.5308 213.048 85.5083C212.939 85.476 212.828 85.4431 212.734 85.4137C212.714 85.0237 212.744 84.5037 212.804 84.1237C213.102 83.9766 213.435 83.9549 213.768 83.9331C214.205 83.9045 214.645 83.8758 215.014 83.5637C214.774 83.3337 214.544 82.9337 214.474 82.6137C214.814 82.6937 215.274 82.8237 215.604 82.9337C215.834 82.6837 216.014 82.2337 216.034 81.9037C217.779 81.4503 218.406 82.7601 219.045 84.0956C219.434 84.9102 219.829 85.7343 220.484 86.1737C220.502 86.1639 220.522 86.1534 220.541 86.1425C220.602 86.1091 220.668 86.0714 220.734 86.0337C220.821 85.9837 220.909 85.9337 220.984 85.8937C221.075 83.1181 219.715 80.9708 218.354 78.8239C217.627 77.6758 216.899 76.5277 216.394 75.2837C216.407 75.2658 216.42 75.2468 216.434 75.2271C216.454 75.1975 216.476 75.1661 216.498 75.134L216.559 75.0437C216.616 74.9587 216.674 74.8737 216.724 74.8037C216.417 73.6037 216.161 72.8371 215.954 72.5037C216.034 72.3437 216.154 72.1237 216.244 71.9637C215.984 71.2737 215.824 70.9837 214.934 71.1737C214.677 71.9028 215.081 72.6963 215.469 73.4564C215.986 74.4685 216.472 75.4212 215.324 76.0837C215.123 75.8016 214.961 75.4939 214.798 75.1864C214.581 74.7745 214.363 74.363 214.054 74.0137C214.187 73.2537 214.194 72.6304 214.074 72.1437C213.464 71.7737 213.254 71.6137 212.724 71.0037C212.759 70.9287 212.801 70.8387 212.844 70.7487C212.886 70.6587 212.929 70.5687 212.964 70.4937C212.674 70.3637 212.194 70.3337 211.894 70.4437C211.635 72.5116 212.242 74.4411 212.848 76.371C213.462 78.3236 214.076 80.2766 213.794 82.3737C213.767 82.3753 213.738 82.3771 213.708 82.3791C213.652 82.3828 213.592 82.3871 213.531 82.3914L213.524 82.3918L213.522 82.392C213.408 82.4001 213.291 82.4083 213.194 82.4137C213.074 82.7537 212.884 83.1937 212.704 83.5037C212.344 82.1737 210.624 81.1537 209.804 80.9737C209.504 81.2004 209.661 82.8404 210.274 85.8937C210.368 86.3527 210.491 86.8054 210.614 87.2579C210.869 88.1951 211.124 89.1326 211.124 90.1237C211.124 90.4737 211.094 90.9537 211.044 91.3137L208.354 85.1537C205.824 77.8837 205.794 77.8337 205.794 77.8337L197.304 67.8537C196.984 67.9737 196.624 68.2837 196.444 68.5637C200.18 76.2161 201.292 76.7127 202.7 77.3418L202.704 77.3437C202.68 77.4512 202.649 77.5765 202.619 77.6962C202.599 77.777 202.58 77.8552 202.564 77.9237C204.557 80.317 205.617 81.817 205.744 82.4237C205.629 82.2681 205.495 82.0872 205.362 81.9064C205.23 81.7272 205.098 81.5481 204.984 81.3937C204.814 81.4437 204.594 81.5037 204.424 81.5437C204.417 82.0037 204.597 82.8804 204.964 84.1737C204.764 84.5036 204.616 84.8594 204.468 85.216C204.297 85.6268 204.126 86.0391 203.874 86.4137C203.714 86.3937 203.494 86.3637 203.324 86.3437C203.236 86.8066 203.324 87.2653 203.412 87.7246C203.514 88.2575 203.616 88.7913 203.444 89.3337L203.43 89.3217C203.24 89.1546 201.142 87.3097 200.444 86.1237L200.456 86.1221C204.175 85.6136 204.483 85.5714 203.824 83.4237C202.954 80.5737 194.124 70.4337 194.044 70.3637C192.434 68.9737 191.584 70.1537 190.554 71.9837C190.123 71.9799 189.719 71.7447 189.318 71.5107C188.667 71.1313 188.022 70.7552 187.274 71.3737C187.087 71.527 186.981 72.7237 186.954 74.9637C184.354 75.9937 184.304 76.0137 183.294 80.1737C184.244 81.6637 183.804 83.8737 182.054 84.0937L175.724 86.1937C175.711 86.1737 175.554 85.5537 175.254 84.3337C174.094 84.0837 173.534 84.1237 170.834 84.3337C170.881 84.1404 171.024 82.977 171.264 80.8437C169.934 80.4437 169.504 70.0837 169.504 69.9837C169.244 69.6937 168.944 69.2737 168.754 68.9437C170.552 69.1254 172.327 69.4742 174.102 69.8233C176.138 70.2235 178.176 70.6242 180.254 70.7737C180.304 70.6937 181.614 62.3137 173.264 59.9937C173.334 59.9437 173.419 59.8837 173.504 59.8237C173.589 59.7637 173.674 59.7037 173.744 59.6537C173.394 59.3437 172.934 58.9337 172.584 58.6237C172.664 58.4637 172.764 58.2437 172.834 58.0837C173.767 58.1104 174.521 58.307 175.094 58.6737C175.464 58.5837 175.954 58.4037 176.314 58.2537C176.327 58.2104 176.341 58.1626 176.357 58.1125C176.372 58.0647 176.388 58.0149 176.404 57.965L176.404 57.9634L176.423 57.9037C176.449 57.8218 176.474 57.7421 176.494 57.6737C176.264 57.3637 175.974 56.9237 175.784 56.5837C176.554 57.1537 176.844 57.3637 178.624 57.4537C178.784 57.1037 178.884 56.5937 178.894 56.2137C179.304 56.0837 179.834 55.8237 180.194 55.5737C179.747 54.4937 179.524 53.9237 179.524 53.8637C180.111 53.6437 180.917 53.5471 181.944 53.5737L181.989 53.4942L182.094 53.3087C182.146 53.2162 182.199 53.1237 182.244 53.0437C181.624 51.3237 181.444 50.3837 181.354 49.8737C181.694 49.547 182.481 49.4004 183.714 49.4337C183.788 49.3228 183.884 49.19 183.969 49.0718L184.024 48.996L184.054 48.9537C184.404 48.9037 184.874 48.8237 185.224 48.7637C185.724 48.6637 185.744 48.6437 185.824 48.5537L185.82 48.5451C185.798 48.4971 185.731 48.3549 185.104 47.6337C183.454 45.7337 181.124 41.6737 180.994 41.2937C180.687 40.4219 182.461 40.4236 182.571 40.4237H182.574C183.204 40.4837 184.054 42.8737 184.034 43.4337C183.974 44.7937 185.094 46.3937 186.054 47.4837C187.35 48.9687 187.463 48.9638 187.919 48.9439L187.924 48.9437C189.284 48.8837 190.044 49.4537 190.324 49.6637L188.644 49.3737C189.604 49.5737 190.524 49.8337 191.244 50.2537C191.313 50.2092 191.397 50.1573 191.481 50.1054L191.488 50.1014C191.571 50.0497 191.655 49.9981 191.724 49.9537C191.744 49.727 192.917 49.697 195.244 49.8637H195.264C195.244 49.8387 195.221 49.8087 195.199 49.7787C195.176 49.7487 195.154 49.7187 195.134 49.6937C195.183 49.5762 195.217 49.454 195.252 49.3328C195.288 49.2064 195.323 49.0811 195.374 48.9637C195.467 48.937 195.767 48.947 196.274 48.9937C196.344 48.4137 195.334 47.1137 195.134 46.8637C194.984 46.6637 193.484 43.9237 193.474 43.9037C193.493 43.8755 193.514 43.8406 193.535 43.8053L193.539 43.798C193.562 43.7607 193.584 43.7235 193.604 43.6937C194.296 43.6365 194.65 44.0965 195.004 44.5579C195.331 44.9832 195.659 45.4097 196.254 45.4337C195.664 44.2589 194.779 43.3236 193.894 42.3874C193.31 41.7698 192.725 41.1513 192.224 40.4637C193 40.565 193.736 40.8166 194.47 41.0679C194.823 41.1888 195.177 41.3098 195.534 41.4137L195.502 41.3664L195.489 41.3469L195.456 41.2987L195.428 41.2573C195.321 41.1017 195.214 40.9461 195.124 40.7737C195.184 40.7437 195.264 40.7037 195.314 40.6637C195.416 40.7012 195.516 40.7469 195.617 40.7928C195.811 40.8814 196.007 40.9708 196.224 41.0037C195.274 40.1386 194.085 39.7679 192.897 39.3975C191.695 39.0229 190.494 38.6487 189.544 37.7637C188.097 36.417 186.611 34.037 185.084 30.6237C185.119 30.6237 185.161 30.6187 185.204 30.6137C185.222 30.6116 185.24 30.6095 185.257 30.6077C185.266 30.6068 185.275 30.6061 185.283 30.6054C185.298 30.6044 185.311 30.6037 185.324 30.6037C185.104 29.9937 182.144 28.0337 181.264 27.7437C181.249 27.762 181.235 27.7829 181.22 27.8051C181.208 27.8232 181.196 27.8421 181.184 27.861C181.171 27.8821 181.157 27.9037 181.144 27.9237C181.184 28.0137 181.234 28.1437 181.274 28.2337C181.321 28.327 182.137 29.197 183.724 30.8437C184.216 31.3519 184.144 31.9535 184.072 32.5555C184.01 33.0671 183.949 33.5789 184.234 34.0337C185.314 35.7737 186.251 36.907 187.044 37.4337C188.764 38.5737 188.834 38.7937 188.814 39.3837C188.144 39.9937 187.844 40.2737 189.164 42.7237C189.744 43.7937 189.654 46.1237 189.464 46.4537C188.569 46.4537 188.081 45.6419 187.561 44.7783L187.534 44.7337C186.424 42.8737 180.494 36.9737 180.224 36.7737L180.231 36.7993C180.484 37.6586 180.993 39.3886 179.944 39.8737C176.674 41.3806 173.152 33.2649 173.008 32.9334L173.004 32.9237C172.744 32.2837 172.734 32.1137 173.224 31.7537C174.124 31.1137 174.684 29.9804 174.904 28.3537C174.914 28.2637 174.984 27.3437 173.274 24.7137C173.272 24.7104 173.255 24.6801 173.225 24.6267C172.89 24.0324 170.947 20.5844 170.864 19.9237C170.824 19.6037 170.924 19.1837 171.164 18.6637C171.074 18.4387 170.904 18.2737 170.734 18.1087C170.564 17.9437 170.394 17.7787 170.304 17.5537C170.79 17.7272 171.158 18.0729 171.526 18.4187C171.9 18.7704 172.275 19.1223 172.774 19.2937C172.454 18.927 172.251 18.6337 172.164 18.4137C172.384 18.4737 175.224 19.7837 175.494 20.4037C175.39 20.374 175.264 20.3278 175.149 20.2855L175.101 20.2679L175.034 20.2437C176.576 21.2984 176.98 21.4522 177.191 21.5325L177.194 21.5337C177.219 21.5137 177.249 21.4912 177.279 21.4686C177.309 21.4462 177.339 21.4237 177.364 21.4037C178.014 21.7937 178.164 21.9037 178.414 22.1137C178.294 22.0537 178.114 21.9837 177.984 21.9437C178.224 22.1737 178.484 22.4037 180.814 23.8137C184.054 25.7737 188.984 30.0337 189.404 30.7937C188.368 30.3136 187.499 29.6038 186.632 28.8952C186.019 28.3935 185.405 27.8924 184.734 27.4737C186.409 28.8074 187.95 30.2934 189.492 31.7797C190.932 33.1686 192.373 34.5582 193.924 35.8237C193.949 35.8037 193.979 35.7837 194.009 35.7637L194.027 35.7516L194.051 35.7356L194.057 35.731L194.07 35.7216C194.079 35.7156 194.087 35.7097 194.094 35.7037C193.845 35.4543 193.573 35.2275 193.301 35.0008C192.744 34.5365 192.187 34.0721 191.824 33.4137C191.949 33.5006 192.068 33.5932 192.186 33.6856L192.187 33.6862C192.382 33.8382 192.577 33.9894 192.794 34.1137C190.891 32.1514 190.805 32.0357 190.609 31.7709L190.604 31.7637C190.774 31.9137 190.944 32.0737 191.124 32.2437H191.134L195.734 36.9037C200 41.4964 200.171 41.7294 206.923 50.9364L207.134 51.2237C208.296 52.9667 209.633 55.1934 210.857 57.232L210.857 57.2329L210.861 57.2385L210.871 57.2559C211.349 58.0508 211.809 58.8167 212.234 59.5137C211.154 57.9837 209.754 56.7137 208.014 55.6037C209.874 56.7937 211.144 58.0737 212.234 59.5137L216.194 67.2637L216.244 67.3713C217.975 71.1183 218.586 72.4401 219.874 76.2537C219.854 76.2337 219.824 76.1937 219.824 76.1937C219.871 76.5937 221.127 80.8904 223.594 89.0837C223.587 89.0704 223.581 89.056 223.574 89.0416C223.561 89.0127 223.547 88.9837 223.534 88.9637C225.044 97.9937 225.114 98.4037 225.884 100.954C226.014 101.784 226.144 102.664 226.284 103.634C226.532 106.051 226.684 109.082 226.82 111.806ZM226.174 122.214C226.061 124.88 226.081 126.374 226.234 126.694V126.704L226.245 126.662L226.246 126.661L226.247 126.657L226.247 126.655L226.247 126.654C226.397 126.089 226.468 125.822 226.624 124.354C226.704 120.664 226.494 114.264 225.994 113.504C225.814 114.594 225.694 115.384 225.994 124.044C226.041 123.67 226.101 123.06 226.174 122.214Z" fill="url(#paint26_linear_156_1592)" fill-opacity="0.6"/>
<path d="M226.624 124.994C226.639 124.855 226.643 124.711 226.644 124.561L226.624 124.994Z" fill="url(#paint27_linear_156_1592)" fill-opacity="0.6"/>
<path d="M223.737 88.9113L223.749 88.9548C223.761 89.0024 223.773 89.0531 223.784 89.1039C223.798 89.161 223.811 89.2181 223.825 89.2707C223.831 89.2964 223.838 89.3211 223.845 89.3441L224.414 91.8768C224.408 91.8488 224.4 91.8148 224.395 91.7941C224.581 93.2219 224.864 94.641 225.144 96.0513L225.205 96.3541C224.335 90.7488 224.002 89.5512 222.729 84.9643L222.685 84.8041C222.58 84.4854 222.479 84.1744 222.381 83.8717L222.307 83.6424C222.251 83.4697 222.196 83.2999 222.142 83.1332C222.099 83.0016 222.056 82.8719 222.015 82.7441C223.355 87.3065 223.413 87.5576 223.96 89.9082L223.985 90.0141C223.905 89.6341 223.815 89.2542 223.725 88.8641C223.729 88.8792 223.733 88.895 223.737 88.9113Z" fill="url(#paint28_linear_156_1592)" fill-opacity="0.6"/>
<path d="M221.724 81.7405C221.764 81.876 221.802 82.007 221.839 82.1342L221.842 82.1469L221.843 82.1499C221.902 82.3526 221.958 82.5461 222.014 82.7344L221.657 81.6359C220.91 79.3395 220.352 77.6216 219.884 76.2344C219.934 76.3044 219.974 76.3944 220.144 76.8444L220.124 76.7944L221.349 80.4344L221.328 80.3789C221.32 80.3574 221.312 80.3359 221.304 80.3144C221.381 80.6879 221.504 81.0407 221.627 81.3941L221.628 81.3957L221.628 81.3972C221.696 81.5915 221.763 81.7861 221.824 81.9844C221.79 81.9057 221.756 81.8238 221.724 81.7405Z" fill="url(#paint29_linear_156_1592)" fill-opacity="0.6"/>
<path d="M221.494 80.8644C221.447 80.7166 221.4 80.5748 221.349 80.4344L221.494 80.8644Z" fill="url(#paint30_linear_156_1592)" fill-opacity="0.6"/>
<path d="M225.994 101.324L225.991 101.289C225.995 101.304 226 101.319 226.004 101.334L225.994 101.324Z" fill="url(#paint31_linear_156_1592)" fill-opacity="0.6"/>
<path d="M225.991 101.289C225.984 101.268 225.978 101.248 225.973 101.227L225.958 101.176C225.937 101.104 225.918 101.034 225.894 100.964C225.769 100.148 225.655 99.3933 225.55 98.6952L225.547 98.6748C225.419 97.8252 225.304 97.0588 225.194 96.3643L225.241 96.611C225.534 98.1583 225.828 99.7149 225.991 101.289Z" fill="url(#paint32_linear_156_1592)" fill-opacity="0.6"/>
<path d="M160.063 47.0816L160.07 47.0644L160.076 47.0483C160.086 47.0248 160.094 47.0045 160.094 47.0045H160.084C159.946 46.968 159.803 46.9561 159.66 46.9443C159.451 46.927 159.24 46.9096 159.044 46.8145C158.635 46.6097 158.539 46.3764 158.47 46.2073L158.464 46.1945C158.384 45.7245 158.584 45.4145 158.754 45.2345L158.768 45.2213C159.013 44.9753 159.273 44.7152 160.334 44.1945C160.404 44.1645 160.514 44.1145 160.574 44.0545C160.344 44.0345 160.284 44.0045 160.184 43.9445C158.587 43.0583 161.011 42.4187 161.241 42.3581L161.254 42.3545C161.271 42.3545 161.281 42.3545 161.29 42.3576C161.302 42.3617 161.311 42.3715 161.334 42.3945L161.343 42.4028C161.395 42.4561 161.5 42.5613 161.774 42.6845C161.974 42.7795 162.182 42.8495 162.389 42.9195C162.597 42.9895 162.804 43.0595 163.004 43.1545C163.154 43.2245 163.344 43.3245 163.474 43.4145C163.744 43.5945 164.084 43.9045 164.204 44.3445C164.319 44.7727 164.179 45.1104 164.088 45.3316L164.074 45.3645C163.854 45.8645 163.874 46.0445 164.204 46.5245L164.23 46.5619C164.411 46.8289 164.591 47.0941 164.744 47.5145C165.054 48.3745 165.124 48.9345 164.954 49.1745C164.767 49.4426 164.491 49.4852 164.215 49.5278C164.048 49.5535 163.881 49.5792 163.734 49.6545C163.531 49.7593 163.343 49.8907 163.153 50.0229C163.035 50.1052 162.917 50.1878 162.794 50.2645C161.534 51.0745 159.814 51.2645 159.444 50.8145C159.234 50.5445 159.194 50.2345 159.304 49.5845C159.304 49.5745 159.614 47.9545 160.054 47.1045C160.056 47.0983 160.059 47.0903 160.063 47.0816Z" fill="url(#paint33_linear_156_1592)" fill-opacity="0.6"/>
<path d="M51.9843 16.4346H51.9943L51.9843 16.4396V16.4346Z" fill="url(#paint34_linear_156_1592)" fill-opacity="0.6"/>
<path d="M49.5643 17.9046C49.6631 17.7662 51.6856 16.5928 51.9843 16.4396V16.4446C49.7743 17.9046 49.6743 17.9046 49.5643 17.9046Z" fill="url(#paint35_linear_156_1592)" fill-opacity="0.6"/>
<path d="M215.034 95.9841C215.03 95.9879 215.022 95.9932 215.013 95.9982C214.999 96.0064 214.984 96.0141 214.984 96.0141L214.994 96.0042C214.404 96.2041 212.194 95.0541 211.864 94.4841C211.704 94.2241 211.784 94.0141 212.034 93.9941C212.067 93.9941 212.271 94.0641 212.644 94.2041C212.827 94.2751 213.021 94.3006 213.215 94.3261C213.349 94.3438 213.483 94.3614 213.614 94.3941C213.684 94.4141 213.864 94.4641 214.044 94.6641C214.044 94.6641 215.034 95.9341 215.034 95.9441V95.9841Z" fill="url(#paint36_linear_156_1592)" fill-opacity="0.6"/>
<path d="M194.024 80.4844C194.103 80.5711 194.219 80.6065 194.335 80.6421C194.515 80.6969 194.695 80.752 194.744 80.9944C194.783 81.1707 194.769 81.347 194.756 81.5221C194.742 81.7046 194.728 81.8858 194.774 82.0644C194.854 82.3544 195.064 82.4044 195.154 82.4244C195.394 82.4844 196.594 82.0944 196.624 81.1244C196.624 81.0144 196.614 80.8744 196.594 80.7644C196.564 80.5644 196.511 80.3669 196.459 80.1694C196.406 79.9721 196.354 79.7741 196.324 79.5744C196.295 79.3707 196.287 79.1647 196.279 78.9586C196.27 78.7297 196.26 78.5007 196.224 78.2744C196.124 77.5944 195.884 77.5144 195.644 77.4844C195.254 77.4944 194.314 77.8544 193.984 78.4744C193.784 78.8344 193.734 80.1544 194.034 80.4744L194.024 80.4844Z" fill="url(#paint37_linear_156_1592)" fill-opacity="0.6"/>
<path d="M188.514 79.7146C188.514 79.7446 188.024 80.2946 188.024 80.2946L188.014 80.2846C187.934 80.3646 187.874 80.4246 187.754 80.4246C187.404 80.4446 186.554 80.0846 186.324 79.8246C185.924 79.3646 186.964 79.2246 187.614 79.2846C188.214 79.3546 188.554 79.5146 188.514 79.7146Z" fill="url(#paint38_linear_156_1592)" fill-opacity="0.6"/>
<path d="M194.014 74.8338C193.914 74.9238 193.814 75.0138 193.854 75.2238C193.864 75.3038 193.944 75.4538 194.024 75.5538C194.024 75.5638 194.964 76.6638 195.034 76.6938C195.244 76.5938 195.054 74.9338 194.864 74.0738C194.864 74.0638 194.564 72.7538 194.384 72.6338H194.364C194.344 72.6438 194.314 72.6838 194.304 72.7638C194.304 72.7838 194.294 72.8238 194.284 72.8438C194.242 73.0951 194.275 73.3393 194.309 73.5849C194.331 73.7497 194.354 73.9151 194.354 74.0838C194.354 74.5438 194.164 74.7138 194.014 74.8438V74.8338Z" fill="url(#paint39_linear_156_1592)" fill-opacity="0.6"/>
<path d="M219.454 99.0244C219.404 99.0744 218.854 98.9745 218.854 98.9745V98.9845C218.804 98.9644 218.694 98.9245 218.574 98.7845C218.194 98.3544 218.034 97.3844 218.184 97.1944L218.192 97.1861C218.223 97.1534 218.275 97.0987 218.394 97.1445C218.487 97.1853 218.56 97.2532 218.632 97.3207C218.684 97.3689 218.735 97.4169 218.794 97.4545C218.904 97.5244 219.034 97.5645 219.134 97.5645C219.214 97.5645 219.289 97.537 219.364 97.5095C219.439 97.482 219.514 97.4545 219.594 97.4545C219.624 97.4644 219.654 97.4745 219.654 97.6044V97.6844C219.654 97.6945 219.534 98.9344 219.454 99.0244Z" fill="url(#paint40_linear_156_1592)" fill-opacity="0.6"/>
<path d="M40.3136 25.1445L40.3536 25.1845C40.3936 25.1845 40.4536 25.1545 40.4936 25.1345C40.8316 24.899 41.1486 24.6371 41.4648 24.376L41.4656 24.3753C41.7664 24.1268 42.0669 23.8786 42.3836 23.6545C42.9282 23.2746 43.4917 22.9241 44.0558 22.5731C44.7243 22.1573 45.3937 21.7409 46.0336 21.2745C46.2136 21.1412 46.4203 20.8578 46.6536 20.4245C46.6536 20.4245 46.6464 20.4065 46.6385 20.3878C46.6332 20.3753 46.6276 20.3625 46.6236 20.3545C46.3436 20.4145 46.1169 20.5634 45.8903 20.7123C45.7769 20.7867 45.6636 20.8612 45.5436 20.9245C45.7436 20.7512 45.8603 20.5945 45.8936 20.4545C45.8936 20.4545 45.8843 20.4483 45.8727 20.4411C45.8633 20.4354 45.8525 20.4289 45.8436 20.4245C45.8236 20.4295 45.7986 20.437 45.7735 20.4445L45.739 20.4548L45.7229 20.4593L45.7036 20.4645C44.7236 20.8778 42.0803 22.8545 37.7736 26.3945C37.2136 26.8545 36.7636 27.2245 36.3036 28.1945C36.3105 28.1945 36.3174 28.1969 36.3242 28.2004C36.3307 28.2037 36.3371 28.208 36.3436 28.2123C36.3503 28.2167 36.3569 28.2212 36.3636 28.2245C37.3873 27.7424 38.2059 26.9986 39.0241 26.2552C39.4448 25.873 39.8653 25.4909 40.3136 25.1445Z" fill="url(#paint41_linear_156_1592)" fill-opacity="0.6"/>
<path d="M50.5545 18.4537C50.0545 18.7337 49.5345 19.0237 49.3745 19.0037L49.3845 18.9937C49.1945 18.9737 49.1945 18.7737 49.5345 18.6237C50.4845 18.2037 52.1645 17.3137 52.6845 16.9637C52.1184 17.1722 51.8384 17.3216 51.6876 17.402L51.6845 17.4037C51.1245 17.7037 51.1145 17.7037 51.0545 17.7037C51.166 17.6131 51.2896 17.5395 51.4132 17.466C51.6441 17.3285 51.8746 17.1913 52.0245 16.9437L49.7345 18.1837C49.7745 17.5337 54.4945 15.2337 54.5445 15.2337C54.773 15.4891 54.4776 15.6451 54.1864 15.7989C54.0443 15.8739 53.9032 15.9484 53.8245 16.0337C53.8201 16.0424 53.8139 16.0511 53.8074 16.059C53.8039 16.0632 53.8003 16.0673 53.7969 16.071C53.7921 16.076 53.7878 16.0804 53.7845 16.0837C53.7345 16.1337 53.6845 16.1837 53.6445 16.2337L53.6845 16.2737C55.4545 15.8637 55.7645 15.2737 55.8145 15.0337C55.8945 14.7137 58.2045 13.5237 58.2245 13.5137H58.3045C57.9394 13.8949 57.534 14.2328 57.1284 14.5708C56.7786 14.8624 56.4286 15.1541 56.1045 15.4737C56.3702 15.3171 56.6202 15.1357 56.8705 14.9541C57.1476 14.7531 57.425 14.5518 57.7245 14.3837C57.7245 14.3837 58.0245 14.2137 58.2845 14.2337L58.2829 14.2364C58.2439 14.3047 58.2198 14.3469 57.8645 14.5937C57.8445 14.6137 55.9945 15.8937 55.5045 16.1537C55.108 16.3617 54.682 16.5063 54.2565 16.6507C54.0274 16.7285 53.7985 16.8062 53.5745 16.8937C53.5745 16.8937 52.5545 17.3337 50.5545 18.4537Z" fill="url(#paint42_linear_156_1592)" fill-opacity="0.6"/>
<path d="M36.2141 30.7238C36.3996 30.7674 36.5643 30.698 36.7276 30.6291C36.8636 30.5717 36.9987 30.5147 37.1441 30.5238C37.1541 30.5338 37.1616 30.5438 37.1691 30.5538C37.1766 30.5638 37.1841 30.5738 37.1941 30.5838C37.1101 30.8134 36.9509 30.9865 36.7919 31.1594C36.6669 31.2952 36.5421 31.431 36.4541 31.5938C36.8441 31.5938 40.0241 30.1838 41.8241 28.7338C42.4041 28.2638 42.6441 28.0738 42.9641 27.9538C42.9741 27.9588 42.9865 27.9662 42.9989 27.9737C43.0114 27.9812 43.0241 27.9888 43.0341 27.9938C42.9341 28.1805 42.8774 28.2938 42.8641 28.3338C43.0141 28.4838 44.2241 28.7438 44.2341 28.7438C44.9874 28.4905 45.7341 27.9505 46.4741 27.1238C46.4741 27.1238 46.5241 27.0738 46.5241 27.0638C46.4441 27.0505 46.0541 27.2305 45.3541 27.6038C45.4741 27.2338 46.5741 26.3938 47.3341 26.4338C47.6041 26.4438 47.6641 26.4338 47.7541 26.3538C47.7541 26.3538 48.3341 25.8238 48.2441 25.3538C47.6541 25.0138 47.4041 24.3538 47.7141 23.9638C47.9941 23.6238 50.4441 20.6138 50.3841 20.3738C50.3108 20.3338 50.2286 20.3116 50.1464 20.2894C50.1053 20.2783 50.0641 20.2671 50.0241 20.2538C50.0141 20.2138 49.9941 20.1738 49.9741 20.1338C49.9741 20.1338 49.9663 20.1416 49.958 20.1475L49.9536 20.1503C49.9501 20.1524 49.9468 20.1538 49.9441 20.1538C49.5006 20.5306 49.1109 20.966 48.7214 21.4012C48.1186 22.0748 47.516 22.7482 46.7141 23.2038C46.6314 22.8601 46.8281 22.6623 47.0259 22.4633C47.1389 22.3497 47.2523 22.2356 47.3141 22.0938C47.2914 22.0786 47.2628 22.0577 47.2373 22.0397L47.231 22.0353L47.2141 22.0238C46.9933 22.1045 46.7888 22.223 46.5836 22.3418C46.3056 22.503 46.0264 22.6647 45.7041 22.7338C45.7729 22.6192 45.8668 22.5256 45.9609 22.4319C46.0722 22.3211 46.1837 22.21 46.2541 22.0638L46.1941 22.0038C45.7955 22.1223 45.452 22.3453 45.1089 22.568C44.8151 22.7587 44.5216 22.9493 44.1941 23.0738C44.4398 22.7332 44.7727 22.4986 45.1059 22.2638C45.3695 22.0781 45.6333 21.8923 45.8541 21.6538C45.4041 21.7038 39.5941 25.4538 39.7341 26.1538C39.8041 26.1838 39.8941 26.2338 39.9641 26.2738C39.8541 26.4638 39.8441 26.4738 39.1541 26.8838C37.9941 27.5838 37.9441 27.7238 37.9541 27.8838C38.0141 27.9138 38.1041 27.9238 38.1641 27.9138C38.4887 27.8479 38.785 27.7048 39.0817 27.5614C39.37 27.4222 39.6587 27.2828 39.9741 27.2138C40.1991 27.1638 40.4266 27.1888 40.6541 27.2138C40.8816 27.2388 41.1091 27.2638 41.3341 27.2138C40.5467 27.8263 39.4946 28.1457 39.014 28.2917L38.9741 28.3038C35.9341 29.2138 35.6441 30.5638 36.1841 30.6938L36.2141 30.7238Z" fill="url(#paint43_linear_156_1592)" fill-opacity="0.6"/>
<path d="M62.434 36.0244C62.644 35.9844 62.904 35.9743 62.804 36.2344V36.2444C62.664 36.6044 61.554 37.7943 61.224 37.5144C61.084 37.4044 61.004 36.8544 61.324 36.4644C61.544 36.1944 62.424 36.0244 62.434 36.0244Z" fill="url(#paint44_linear_156_1592)" fill-opacity="0.6"/>
<path d="M61.324 34.1038C61.324 34.1038 61.484 34.0238 61.524 33.9338C61.624 33.7338 61.474 33.4038 61.354 33.2938C61.2681 33.2124 61.1678 33.1474 61.0671 33.082C60.9452 33.0029 60.8226 32.9234 60.724 32.8138C60.5939 32.6753 60.4885 32.514 60.3826 32.3519C60.2361 32.1277 60.0887 31.9021 59.874 31.7338C59.8561 31.7219 59.8374 31.7083 59.8181 31.6941C59.7723 31.6608 59.7232 31.6249 59.674 31.6038C59.4857 31.4868 59.2767 31.4397 59.0681 31.3926C58.8667 31.3472 58.6657 31.3019 58.484 31.1938C58.369 31.1238 58.309 31.0063 58.249 30.8888C58.189 30.7713 58.129 30.6538 58.014 30.5838C57.984 30.5638 57.944 30.5738 57.914 30.5838C57.574 30.7438 56.444 32.3338 56.404 32.3938C56.254 32.6038 56.074 32.8838 55.944 33.0938L54.704 35.0938C55.1906 35.1338 55.454 35.2771 55.494 35.5238C55.534 35.7705 55.5806 35.9238 55.634 35.9838C55.734 35.9638 55.934 35.8038 56.334 35.4638L56.3351 35.4629C56.9152 34.9728 57.8847 34.1537 59.014 34.0338C59.3411 33.9956 59.6646 34.0494 59.9883 34.1032C60.4266 34.1761 60.8653 34.2491 61.314 34.0938L61.324 34.1038Z" fill="url(#paint45_linear_156_1592)" fill-opacity="0.6"/>
<path d="M57.1238 36.2442C57.6538 35.8242 59.2938 35.4742 59.2938 35.4742C59.8438 35.3942 59.8138 35.5942 59.6938 35.7742C59.3238 36.3342 57.2738 37.5542 56.9338 37.3042C56.7638 37.1742 56.8038 36.4942 57.1238 36.2442Z" fill="url(#paint46_linear_156_1592)" fill-opacity="0.6"/>
<path d="M55.1036 127.084C54.4836 127.334 54.8436 128.314 55.2236 128.444C55.4836 128.534 57.0936 128.844 57.0636 128.164C57.0436 127.764 55.9236 126.904 55.1136 127.074L55.1036 127.084Z" fill="url(#paint47_linear_156_1592)" fill-opacity="0.6"/>
<path d="M167.524 46.7641C167.484 46.6542 167.474 46.5842 167.584 46.5742C167.714 46.5742 167.884 46.6342 168.304 46.8242L167.577 46.7683C168.068 46.8085 168.4 46.8704 168.574 46.9541L168.596 46.9644C169.234 47.2635 170.091 47.6658 169.914 46.9541C169.738 46.5861 169.468 46.2836 169.198 45.9812C168.962 45.7166 168.726 45.4521 168.554 45.1441C168.482 45.0182 168.496 44.8851 168.51 44.7513C168.52 44.6619 168.53 44.5722 168.514 44.4841C168.264 44.3041 168.084 44.2541 166.694 43.8941C165.814 43.6641 165.114 43.4741 164.514 42.1141C164.389 41.8359 164.489 41.5129 164.586 41.1966C164.723 40.7511 164.856 40.3189 164.354 40.0441C164.149 39.9369 163.897 40.1241 163.597 40.3466L163.574 40.3641C162.744 40.9941 162.344 41.0341 162.154 40.9641C162.02 40.62 162.106 40.2883 162.191 39.9569C162.26 39.6911 162.328 39.4256 162.284 39.1541V39.1641C162.224 38.7998 162.069 38.4695 161.912 38.1385C161.751 37.7971 161.589 37.4549 161.534 37.0741C161.514 36.9941 161.484 36.8741 161.514 36.7941C161.864 35.9541 164.224 35.9141 164.244 35.9141C164.798 35.9456 164.574 36.4297 164.338 36.9412C164.199 37.2414 164.056 37.551 164.064 37.7841C164.074 38.1032 164.292 38.0742 165.493 37.9154L165.504 37.9141L165.568 37.9065L165.57 37.9063C165.827 37.8763 166.182 37.8349 166.504 37.8441C168.414 37.9241 167.484 41.0641 166.774 41.6941C167.334 41.7141 168.444 41.8841 169.664 42.6541C170.109 42.9402 170.436 43.3354 170.765 43.7319C170.954 43.959 171.142 44.1865 171.354 44.3941C172.038 45.0669 172.868 45.5219 173.701 45.9779C174.328 46.3215 174.956 46.6657 175.524 47.1041C175.824 47.3341 175.924 47.4741 175.974 47.5541C175.977 47.5578 175.98 47.563 175.981 47.5681C175.984 47.5763 175.984 47.5841 175.984 47.5841C176.021 47.7691 175.578 47.6203 175.203 47.494L175.114 47.4641C174.554 47.3374 174.25 47.2807 174.204 47.2941C174.202 47.298 174.199 47.3022 174.197 47.3067L174.196 47.3089C174.186 47.3269 174.174 47.3488 174.174 47.3641C174.174 47.3841 174.914 48.9041 175.994 48.8441L175.998 48.8439C176.467 48.8239 177.065 48.7984 177.634 50.2941C177.795 50.7178 177.676 51.1238 177.558 51.5299C177.441 51.9288 177.325 52.3278 177.474 52.7441C177.726 52.8323 177.996 52.8031 178.267 52.7739C178.671 52.7303 179.076 52.6866 179.424 53.0341C179.414 53.0541 179.394 53.1241 179.394 53.1241L176.594 54.0741C176.574 54.0841 176.544 54.0841 176.534 54.0841C175.682 54.2042 174.825 54.2288 173.969 54.2535C173.185 54.276 172.402 54.2985 171.624 54.3941C169.477 54.6607 168.33 54.7774 168.184 54.7441C168.174 54.7041 168.164 54.6441 168.164 54.6041C168.357 54.3959 168.584 54.2253 168.81 54.0547C169.051 53.8729 169.292 53.691 169.494 53.4641C169.641 53.2977 169.734 53.0993 169.826 52.9014C169.933 52.6711 170.04 52.4415 170.234 52.2641C170.424 52.0841 170.574 51.9541 171.074 51.9541L171.085 51.9543C171.599 51.9642 171.933 51.9706 171.894 51.5241C171.854 51.0441 170.364 51.0841 169.654 51.1041C167.974 51.1541 167.664 50.7941 167.604 50.6841C167.504 50.4741 167.784 50.3341 167.974 50.2441C168.684 49.9041 169.174 49.6241 169.064 49.0941C168.952 48.5712 168.609 48.202 168.266 47.8332C167.967 47.5107 167.668 47.1885 167.524 46.7641Z" fill="url(#paint48_linear_156_1592)" fill-opacity="0.6"/>
<path d="M92.0244 54.824C92.7645 53.854 93.0945 53.204 92.9944 52.904C92.984 52.9014 92.973 52.8981 92.9614 52.8947C92.9284 52.885 92.8914 52.874 92.8544 52.874C92.4444 53.014 91.3644 53.934 90.5344 54.964C90.0202 55.6004 89.589 56.2912 89.1575 56.9823L89.1569 56.9833C88.7412 57.6492 88.325 58.316 87.8344 58.934C87.5902 59.2428 87.3013 59.5091 87.0129 59.775C86.6755 60.0861 86.3386 60.3966 86.0744 60.774C85.8844 61.044 86.0345 61.124 86.1144 61.164C86.2011 61.2107 87.2478 61.314 89.2544 61.474C90.9744 61.614 92.2345 61.764 93.5744 62.134C93.6107 62.1437 93.6499 62.1551 93.6908 62.167C93.8188 62.2044 93.9632 62.2464 94.0844 62.254C94.2532 62.2644 94.4232 62.213 94.5931 62.1616C94.9165 62.0639 95.2398 61.9662 95.5544 62.294C95.7856 62.5348 95.8127 62.9613 95.8322 63.2693L95.8344 63.304C95.8544 63.634 96.0044 63.664 96.0945 63.654C96.5744 63.594 97.1744 62.674 97.2344 61.884C97.3244 60.624 96.3645 58.654 95.4044 57.624C95.0711 57.264 94.3144 57.214 93.1344 57.474C92.5945 57.594 92.4744 57.474 92.3544 57.034C92.1144 56.184 91.9144 56.034 91.5844 55.864C91.4144 55.774 91.4144 55.714 91.4944 55.544C91.5825 55.3752 91.7352 55.1848 91.8735 55.0125C91.9237 54.95 91.9719 54.8899 92.0145 54.834L92.0244 54.824Z" fill="url(#paint49_linear_156_1592)" fill-opacity="0.6"/>
<path d="M6.30379 69.9937C6.46705 69.6073 6.5918 69.2091 6.71674 68.8104C6.82137 68.4764 6.92619 68.1418 7.05379 67.8137C7.11957 67.6473 7.18983 67.4825 7.25996 67.3179C7.37103 67.0573 7.48186 66.7972 7.57379 66.5337C7.5938 66.4837 7.61379 66.4237 7.62379 66.3737C7.62379 66.3708 7.62656 66.3602 7.63069 66.3444C7.6549 66.2518 7.7261 65.9795 7.5638 66.0137C7.5338 66.0137 7.4938 66.0437 7.47379 66.0637C6.83379 66.5837 6.11379 69.8937 6.2338 70.0937C6.26379 70.0737 6.2838 70.0237 6.29379 69.9937H6.30379Z" fill="url(#paint50_linear_156_1592)" fill-opacity="0.6"/>
<path d="M146.845 23.4031V23.4242L146.875 23.4042L146.855 23.4034L146.845 23.4031Z" fill="url(#paint51_linear_156_1592)" fill-opacity="0.6"/>
<path d="M146.845 23.2942V23.4031C146.734 23.401 146.657 23.4213 146.615 23.4642C146.661 23.6081 146.744 23.7304 146.827 23.8522C146.922 23.9929 147.017 24.1328 147.055 24.3042C147.165 24.7942 144.875 26.4542 143.365 26.8242C141.705 27.2342 141.405 27.2342 141.195 27.2342H140.945C140.638 27.2189 140.343 27.1412 140.047 27.0633C139.763 26.9886 139.478 26.9138 139.185 26.8942C138.915 26.8742 138.635 26.8942 137.815 26.9842C136.555 27.1142 136.435 27.0642 136.285 26.9342C136.285 26.3842 136.275 26.1542 135.645 25.9742C135.416 25.9105 135.173 25.9493 134.931 25.988C134.528 26.0526 134.126 26.1169 133.795 25.7042C135.035 24.6742 132.805 23.8942 132.095 24.0242C131.695 24.1042 130.975 24.2042 130.765 24.0542C130.918 23.8276 131.169 23.7198 131.42 23.6121C131.756 23.4678 132.091 23.3235 132.195 22.8942C132.073 22.7338 131.886 22.6636 131.698 22.5932C131.453 22.5012 131.206 22.4088 131.105 22.1142C131.745 21.6042 134.025 22.2442 134.565 23.2642C134.795 23.7142 136.235 24.9042 136.425 24.9742C136.821 24.6549 136.756 24.2743 136.691 23.8951C136.654 23.6806 136.618 23.4665 136.665 23.2642C136.715 23.2242 136.785 23.1842 136.835 23.1542C136.998 23.0603 137.166 23.1032 137.335 23.1465C137.508 23.1908 137.683 23.2353 137.855 23.1342C137.999 23.0505 138.013 22.8996 138.028 22.7481C138.044 22.574 138.061 22.3991 138.275 22.3242C138.627 22.2047 138.997 22.1662 139.367 22.1275C139.648 22.0982 139.929 22.0688 140.205 22.0042C140.538 21.9273 140.864 21.8187 141.191 21.7096C141.501 21.6061 141.813 21.5021 142.135 21.4242C142.499 21.3987 142.773 21.5854 143.049 21.7731C143.205 21.8792 143.361 21.9856 143.535 22.0542C143.903 22.2027 144.29 22.2181 144.676 22.2335C144.992 22.2461 145.309 22.2587 145.615 22.3442C145.682 22.361 145.763 22.3918 145.834 22.419L145.875 22.4342C146.325 22.6142 146.715 23.0542 146.845 23.2942Z" fill="url(#paint52_linear_156_1592)" fill-opacity="0.6"/>
<path d="M57.1443 124.394C57.8043 125.254 61.9243 125.564 61.9943 125.084C62.0343 124.824 56.7443 118.734 56.6943 118.694L56.6887 118.691C56.1429 118.316 54.4938 117.187 51.4643 117.794C49.7643 118.354 48.5743 119.504 48.5643 119.554C48.7843 119.764 50.0843 119.574 51.1543 118.954C52.6843 118.074 53.7043 118.574 53.8043 118.844C53.7243 118.994 53.5143 119.214 53.0243 118.934C53.0174 118.938 53.0105 118.943 53.0035 118.948L52.9849 118.961C52.978 118.966 52.9712 118.971 52.9643 118.974C53.0229 119.696 54.1947 119.999 55.004 120.209L55.0643 120.224C56.5483 120.603 56.6535 120.922 56.9606 121.853L56.9643 121.864C57.1143 122.334 57.2143 122.624 57.5343 123.014C57.7543 123.284 57.9143 123.484 57.9243 123.644C57.9502 123.974 57.7206 124.078 57.4876 124.184C57.3605 124.241 57.2325 124.299 57.1443 124.394Z" fill="url(#paint53_linear_156_1592)" fill-opacity="0.6"/>
<path d="M63.9772 129.988C63.9393 129.776 63.9008 129.561 63.7141 129.454H63.7241C63.2529 129.181 62.7325 129.049 62.2117 128.916C61.6825 128.781 61.1529 128.646 60.6741 128.364C60.6676 128.36 60.6621 128.355 60.6572 128.349C60.6469 128.336 60.6394 128.321 60.6319 128.306C60.6264 128.295 60.6208 128.284 60.6141 128.274L60.6212 128.273C60.7128 128.252 60.8941 128.211 62.4041 128.454C63.2441 128.594 63.8541 128.694 64.0041 128.564C64.0541 128.504 64.4241 127.284 63.2941 126.244C63.2208 126.178 63.1841 126.104 63.1841 126.024C63.2341 125.984 63.2541 125.974 63.3741 125.934C63.8541 125.854 71.5341 126.514 71.1541 128.024C71.0883 128.293 71.1761 128.532 71.2637 128.77C71.3357 128.966 71.4077 129.162 71.3941 129.374C71.3841 129.494 71.2941 129.524 71.1641 129.544C71.1541 129.544 68.3741 129.464 66.7541 129.184C66.4341 129.134 66.3441 129.124 66.2441 129.134C65.8193 129.176 65.6189 129.51 65.4192 129.843C65.1911 130.224 64.9639 130.603 64.4041 130.544C64.0708 130.511 64.0245 130.252 63.9772 129.988Z" fill="url(#paint54_linear_156_1592)" fill-opacity="0.6"/>
<path d="M79.1739 58.104C78.5139 58.354 80.0239 59.084 80.3239 59.224C82.2468 60.1272 82.9531 59.2007 83.0013 59.1373L83.0039 59.134C83.2439 58.594 79.8939 57.984 79.1739 58.094V58.104Z" fill="url(#paint55_linear_156_1592)" fill-opacity="0.6"/>
<path d="M199.604 184.954C201.024 184.454 201.074 184.434 203.254 181.624L203.264 181.614C203.617 181.154 203.871 180.84 204.024 180.674L204.031 180.678L204.04 180.682C204.058 180.692 204.079 180.704 204.094 180.704C203.764 181.694 201.724 184.454 201.054 185.294C200.874 185.521 200.747 185.661 200.674 185.714C200.847 185.441 200.934 185.277 200.934 185.224C199.827 186.378 198.755 187.566 197.683 188.754C196.015 190.602 194.346 192.451 192.544 194.174C190.117 196.487 188.587 197.641 187.954 197.634C188.054 197.264 191.614 192.724 194.254 190.654C195.114 189.984 195.444 189.724 196.314 188.454L196.387 188.347C198.084 185.889 198.45 185.358 199.604 184.954Z" fill="url(#paint56_linear_156_1592)" fill-opacity="0.6"/>
<path fill-rule="evenodd" clip-rule="evenodd" d="M129.724 161.054C129.668 160.752 129.783 160.41 129.897 160.072C130.088 159.504 130.274 158.95 129.634 158.624C129.219 158.414 128.811 158.497 128.402 158.581C128.091 158.645 127.779 158.709 127.464 158.644C126.22 158.373 125.202 157.669 124.184 156.965C123.288 156.346 122.393 155.727 121.344 155.404C119.244 154.756 117.097 154.283 114.949 153.809C113.681 153.529 112.413 153.25 111.154 152.934C109.919 152.483 109.392 151.418 108.869 150.363C108.558 149.736 108.249 149.113 107.794 148.624C106.831 147.995 105.979 147.187 105.127 146.377C104.149 145.448 103.169 144.517 102.014 143.854C100.628 143.066 99.0865 142.795 97.545 142.525C95.9389 142.243 94.3331 141.961 92.9044 141.094C91.9032 140.485 91.0504 139.687 90.1985 138.89C89.1615 137.919 88.1254 136.95 86.8244 136.324C86.4744 136.154 85.9844 136.004 85.6044 135.944L85.5949 135.943C74.0994 134.213 65.0141 132.847 63.9944 141.964C62.6371 140.997 60.4306 141.023 58.3171 141.048C55.1207 141.086 52.1368 141.121 52.6244 137.714C53.1144 134.284 51.6544 131.764 51.6344 131.754C49.9391 130.897 48.2317 131.148 46.5224 131.4C45.5397 131.545 44.5564 131.69 43.5744 131.624C44.1677 129.664 44.2477 128.227 43.8144 127.314C44.5877 125.501 45.1177 123.771 45.4044 122.124C44.8944 121.684 40.4144 118.064 39.4644 128.184C38.8246 128.142 38.2797 128.493 37.7344 128.843C36.9671 129.336 36.199 129.83 35.1644 129.234C31.0244 126.864 29.6044 123.844 29.1344 122.254C28.8049 121.141 29.1949 120.163 29.5842 119.187C29.8803 118.445 30.176 117.703 30.1544 116.904C30.1456 116.382 29.8322 115.979 29.5189 115.576C29.1188 115.061 28.7188 114.547 28.9544 113.784C29.4944 112.024 32.7344 108.734 33.4944 108.144C34.8444 107.104 40.1044 108.284 40.1444 108.304C40.2143 108.244 40.2968 108.177 40.3793 108.109C40.4616 108.042 40.5445 107.974 40.6144 107.914C40.3866 107.663 40.094 107.507 39.8012 107.35C39.5797 107.232 39.3581 107.113 39.1644 106.954C39.2044 106.784 39.2544 106.554 39.2844 106.374C40.3344 105.764 48.6844 105.034 48.7244 105.054C50.5379 106.022 50.8733 107.79 51.2087 109.558C51.5353 111.28 51.862 113.002 53.5544 113.984C55.9452 111.457 54.656 109.102 53.3466 106.709C52.4379 105.048 51.5194 103.37 51.8144 101.604C52.3046 98.6952 54.3758 97.2434 56.4443 95.7935C57.5403 95.0253 58.6355 94.2576 59.4944 93.274H59.4344C59.3941 93.23 59.3497 93.1794 59.3038 93.1269C59.26 93.0768 59.2147 93.025 59.1702 92.976C59.1341 92.9361 59.0984 92.8981 59.0644 92.864L59.0746 92.7832C59.0934 92.6352 59.116 92.4585 59.1244 92.324C59.2844 92.274 59.4844 92.214 59.6444 92.174C59.659 92.0348 59.679 91.858 59.6966 91.6987C59.703 91.6406 59.709 91.5848 59.7144 91.534L59.6573 91.5125C59.5087 91.4559 59.337 91.3882 59.2044 91.344L60.0244 83.174C60.0844 84.384 60.0844 88.054 60.0844 88.064C60.3444 87.8974 60.5877 86.024 60.8144 82.444C60.9224 82.6493 61.0576 82.8403 61.1931 83.0314C61.4337 83.3712 61.6748 83.7117 61.7644 84.134C62.067 83.6117 62.2029 83.0223 62.3389 82.4329C62.5308 81.6005 62.7228 80.768 63.3844 80.124C63.4144 80.094 68.2244 77.484 68.5744 77.514C68.8744 74.7007 69.811 72.5574 71.3844 71.084C71.651 71.0974 74.071 69.7774 78.6444 67.124C78.6094 67.194 78.5694 67.279 78.5294 67.364C78.4894 67.449 78.4494 67.534 78.4144 67.604C78.7644 67.734 79.2644 67.864 79.6444 67.854V68.444C76.9977 70.324 75.6577 71.5374 75.6244 72.084C78.3144 72.134 86.5944 67.314 85.1144 63.594C84.3919 64.0757 84.1072 64.8143 83.8225 65.5529C83.658 65.9798 83.4934 66.4068 83.2444 66.784C82.9936 66.7128 82.755 66.6456 82.5283 66.5818L82.5268 66.5814C81.9592 66.4215 81.4656 66.2826 81.0444 66.154C81.6344 66.034 82.0944 65.394 82.0944 65.384V65.354C82.0944 65.354 82.0944 65.344 82.0844 65.334C82.0344 65.324 82.0144 65.324 81.8544 65.344C80.7944 65.514 80.1844 65.284 79.9644 65.174C79.4344 64.904 79.3544 64.604 79.3944 64.164C79.4044 63.994 79.3844 63.974 79.3644 63.964C79.3644 63.964 79.3444 63.974 79.3344 63.984C79.2844 64.074 78.9444 64.914 79.2544 65.534C78.2244 65.044 78.0444 64.524 77.6444 63.274C76.6744 62.914 76.6144 62.844 76.1944 62.334L76.2245 62.3257C77.6589 61.9301 78.6965 61.6439 79.0044 60.194C78.5044 59.7074 74.8077 61.6207 67.9144 65.934C72.661 60.994 77.4744 57.784 82.3544 56.304C84.0144 57.444 91.4944 53.734 92.6444 51.664C92.3977 51.064 92.4544 50.3207 92.8144 49.434C92.7281 49.3046 92.6194 49.1305 92.527 48.9823L92.4844 48.914C91.8846 48.7841 91.2842 48.654 90.6844 48.534H90.1644L90.1454 48.5361C89.7577 48.5777 88.6619 48.6952 86.7344 49.954C86.6644 49.804 86.5744 49.604 86.5144 49.464C87.1144 48.614 87.3944 48.504 89.6144 47.644L89.5052 47.6534C85.2434 48.0201 81.0854 48.3779 76.5244 48.834C80.7544 48.394 84.4344 48.054 89.6444 47.634C89.6647 47.6229 89.6871 47.6115 89.7105 47.5995C89.8138 47.5468 89.9373 47.4837 89.9944 47.394C90.0944 47.134 88.3644 45.644 86.1944 46.214C85.8677 46.3007 85.6177 46.314 85.4444 46.254C85.3793 46.0718 85.4064 45.8801 85.4336 45.6889C85.4689 45.4393 85.5042 45.1905 85.3344 44.964C85.1306 44.6957 84.8281 44.5928 84.525 44.4897C84.2181 44.3853 83.9106 44.2807 83.7044 44.004C83.5344 43.774 83.6544 43.564 83.9744 43.114C84.2944 42.6674 84.1044 41.824 83.4044 40.584C81.651 37.444 80.3444 36.6974 79.4844 38.344C79.3928 38.518 79.45 38.6961 79.5073 38.8746C79.5753 39.086 79.6433 39.298 79.4644 39.504C79.2798 39.7177 79.0245 39.7309 78.7694 39.7441C78.4993 39.7581 78.2295 39.772 78.0444 40.024C77.4977 40.7707 77.1477 41.1674 76.9944 41.214C76.0787 41.4958 75.3393 41.1174 74.5977 40.7379C74.1812 40.5247 73.7639 40.3111 73.3144 40.214C73.0944 39.824 73.5844 37.264 74.3444 36.654C73.9884 36.537 73.623 36.5602 73.2574 36.5835C72.873 36.6079 72.4885 36.6324 72.1144 36.494C71.9444 36.434 71.8444 36.314 71.6144 35.934L71.6126 35.9311C71.5317 35.7995 71.3412 35.4897 69.5544 34.904C69.1648 34.7774 69.0693 34.7836 68.7781 34.8025L68.7544 34.804C68.0332 34.9963 67.2911 35.0358 66.5496 35.0753C65.5946 35.1261 64.6407 35.1768 63.7344 35.554C63.8527 36.1782 63.6098 36.7758 63.367 37.3732C63.0147 38.2401 62.6625 39.1068 63.4144 40.054C63.3077 40.3874 63.0548 40.622 62.8024 40.8562C62.4869 41.1488 62.1721 41.4407 62.1444 41.924C62.113 42.4566 62.3788 42.8719 62.6443 43.2867C62.8873 43.6664 63.13 44.0457 63.1444 44.514L63.1444 44.5181C63.1462 44.6658 63.192 48.5014 60.9544 49.014C60.4544 49.124 59.3244 49.484 59.5744 50.324C59.4644 50.464 59.4044 50.514 58.9544 50.864C58.7513 51.6359 58.7888 52.4742 58.8265 53.3154C58.9001 54.9589 58.9742 56.6134 57.2544 57.804C56.7129 56.9684 55.8854 56.5305 55.0587 56.0931C54.6488 55.8761 54.239 55.6592 53.8644 55.394C54.4744 53.604 54.2144 52.944 53.8744 52.114C53.9594 52.044 54.077 51.9489 54.1946 51.8538C54.312 51.7589 54.4294 51.664 54.5144 51.594C54.4994 51.5491 54.4994 51.4767 54.4994 51.403C54.4994 51.3292 54.4994 51.254 54.4844 51.204C54.2844 51.174 54.0244 51.154 53.8244 51.164C53.1689 50.533 52.427 50.6376 51.6863 50.7421C51.2178 50.8081 50.7498 50.8741 50.3044 50.754C49.694 50.5871 49.2388 50.1834 48.7839 49.78C48.3668 49.4101 47.9501 49.0406 47.4144 48.854C47.2244 48.784 46.9544 48.714 46.7544 48.684C46.0864 48.5738 45.5446 48.8504 45.0036 49.1267C44.7103 49.2765 44.4172 49.4261 44.1044 49.514C43.8977 49.3474 43.6644 48.4807 43.4044 46.914C43.311 46.3674 42.6244 46.044 41.3444 45.944C40.9049 43.4569 46.9704 38.9544 49.5754 37.0207L49.5844 37.014C49.4026 36.5353 49.0115 36.4752 48.6226 36.4154C48.3696 36.3765 48.1175 36.3377 47.9244 36.184C51.291 35.584 53.931 34.264 55.8444 32.224C53.8944 32.564 53.4844 32.634 51.8944 31.734C52.5627 31.4923 53.2993 31.4869 54.0354 31.4815C55.3699 31.4717 56.7027 31.4619 57.6244 30.044C57.4744 29.944 57.2444 29.864 57.0744 29.854C57.0744 29.844 58.0144 28.714 59.0044 29.334C61.1844 28.5474 62.561 27.9007 63.1344 27.394C63.3244 27.234 63.5444 26.984 63.6644 26.774C63.8421 26.4745 63.78 26.162 63.7178 25.8484C63.6574 25.5444 63.5968 25.2394 63.7544 24.944C63.9201 24.6297 64.2164 24.5114 64.5127 24.393C64.735 24.3042 64.9572 24.2155 65.1244 24.044C65.2521 23.8798 65.3169 23.686 65.3819 23.4918C65.4237 23.3667 65.4656 23.2415 65.5244 23.124L65.5235 23.1231C65.4594 23.0586 62.7285 20.3094 61.8144 24.274C61.2301 24.6108 60.7025 25.3008 60.1781 25.9868C59.1765 27.2966 58.1864 28.5916 56.8344 27.384C56.907 26.8879 57.3539 26.4649 57.7851 26.0568C58.4229 25.4531 59.0264 24.8819 58.3344 24.154C57.4961 24.474 56.9772 25.1297 56.458 25.7859C56.1659 26.1551 55.8736 26.5244 55.5244 26.834C55.2944 26.174 56.6344 24.424 56.6444 24.414C56.5977 24.394 56.181 24.3707 55.3944 24.344C56.7477 22.1574 57.4277 20.934 57.4344 20.674C57.3893 20.639 57.3343 20.599 57.2793 20.559C57.2243 20.519 57.1693 20.479 57.1244 20.444C57.8977 19.2507 60.091 17.5874 63.7044 15.454C63.451 15.4274 63.1244 15.4507 62.7244 15.524C58.3844 16.544 52.5244 24.684 52.4744 24.754C52.5144 24.844 52.5744 24.964 52.6244 25.054C52.895 25.054 53.1656 25.0194 53.4361 24.9848C53.6255 24.9606 53.815 24.9364 54.0044 24.924C54.0202 24.9953 54.0423 25.079 54.0607 25.1505C54.0656 25.1694 54.0702 25.1873 54.0744 25.204C53.1144 25.684 52.9644 25.764 52.5144 26.194V26.424C52.5624 26.436 52.6212 26.448 52.6801 26.4601C52.7192 26.468 52.7584 26.476 52.7944 26.484C52.3627 27.222 51.6985 27.7338 51.0345 28.2453C50.2679 28.8359 49.5016 29.4262 49.0944 30.364C48.621 29.8707 48.8277 29.154 49.7144 28.214C49.2077 28.0807 48.131 28.664 46.4844 29.964C46.3444 30.074 45.5244 30.594 42.4744 30.454C42.3767 30.3124 42.3363 30.1493 42.296 29.9869C42.2538 29.8167 42.2118 29.6473 42.1044 29.504C39.6432 30.1318 38.9096 31.5638 37.4599 34.3937L37.4444 34.424C37.2933 34.0211 37.424 33.6558 37.5544 33.2913C37.6571 33.0044 37.7596 32.7179 37.7244 32.414C37.188 32.4987 36.6907 32.7265 36.1931 32.9544C35.4567 33.2917 34.7196 33.6293 33.8544 33.504C34.057 33.3047 34.3005 33.1473 34.5437 32.9901C35.0327 32.674 35.5208 32.3585 35.6744 31.704C35.6132 31.6735 35.5404 31.6312 35.4783 31.5952L35.4244 31.564L35.4201 31.5664C35.0939 31.7443 35.0403 31.7735 34.1044 31.664C33.9944 31.514 33.8344 31.324 33.6944 31.204C33.2538 31.2961 32.9386 31.5784 32.6237 31.8605C32.4598 32.0073 32.2958 32.1542 32.1144 32.274C32.2144 32.094 32.3644 31.854 32.4844 31.694C32.2444 31.8674 31.9277 32.144 31.5344 32.524C31.741 32.0974 32.1544 31.5007 32.7744 30.734C31.701 31.7207 30.1877 33.044 28.2344 34.704C28.7351 34.2302 29.2562 33.7766 29.7772 33.3231C30.2238 32.9344 30.6706 32.5455 31.1044 32.144C31.0944 32.144 28.9944 33.724 26.3744 36.344C26.4644 36.184 26.6044 35.984 26.7144 35.834C26.2422 36.3644 25.7234 36.9467 25.1851 37.5507L25.1666 37.5715C23.8628 39.0345 22.4468 40.6235 21.3044 41.914L21.2603 41.9714C14.334 50.9924 14.1497 51.2324 11.1074 56.2859C11.0961 56.3029 11.085 56.3192 11.0744 56.334L11.0544 56.374L11.1074 56.2859C11.1228 56.2629 11.1385 56.2385 11.1544 56.2141C11.1819 56.1715 11.2094 56.129 11.2344 56.094C9.8477 59.5807 9.07104 61.8007 8.90437 62.754C8.77437 63.164 8.59437 63.724 8.45437 64.134C8.52251 64.2552 8.61357 64.3992 8.69719 64.5315L8.69829 64.5333C8.72473 64.5751 8.75041 64.6157 8.77437 64.654C8.33437 66.0407 7.8777 67.9207 7.40437 70.294C7.23437 71.144 7.43437 71.924 7.69437 72.694C7.59437 72.654 7.42437 72.614 7.17437 72.604C7.05437 72.604 6.99437 72.574 6.94437 72.534C6.90437 72.494 6.89437 72.484 6.82437 72.224C6.79436 72.094 6.65437 71.664 6.55437 71.644C6.55437 71.644 6.29436 72.874 6.58437 73.874C6.81497 74.6715 7.36868 74.592 7.42059 74.5845L7.42437 74.584C7.57437 74.534 7.72437 74.384 7.81437 74.164C7.88292 73.9927 7.90008 73.8066 7.90988 73.7002C7.91151 73.6826 7.91295 73.6668 7.91437 73.654C7.91437 73.584 7.90687 73.5165 7.89937 73.449C7.89187 73.3815 7.88437 73.314 7.88437 73.244V73.204L7.89281 73.2276C8.17997 74.0296 8.46388 74.8225 8.41437 75.684C8.15971 75.5385 7.81404 75.3599 7.53539 75.2159L7.45437 75.174C3.95437 79.534 2.73437 101.384 5.06437 105.464C5.26437 105.497 7.05437 108.974 10.4344 115.894C10.0744 115.894 9.59437 115.914 9.23437 115.934C9.84437 117.214 14.3144 122.994 14.3544 123.044C14.7644 122.454 15.1844 121.834 13.1244 118.914C12.1844 117.584 11.1344 116.084 9.34437 108.824C11.5844 110.464 11.8244 111.534 12.1244 112.884C12.3344 113.854 12.5744 114.944 13.0044 115.624C13.5306 116.468 14.1304 117.262 14.7303 118.057C15.1677 118.636 15.6053 119.215 16.0144 119.814C16.581 120.642 17.3278 121.305 18.0744 121.969C18.9878 122.781 19.9011 123.593 20.4844 124.704C20.7968 125.303 20.9403 125.977 21.0839 126.65C21.3308 127.808 21.5776 128.966 22.6844 129.744C22.8775 129.881 23.1614 129.992 23.4056 130.087C23.4646 130.11 23.5219 130.133 23.5744 130.154C23.7659 130.227 23.9751 130.325 24.1895 130.425C24.5347 130.586 24.8937 130.754 25.2144 130.834C26.1786 131.08 27.1571 131.278 28.1377 131.476C28.9874 131.648 29.8395 131.82 30.6844 132.024C31.4632 132.212 32.2612 132.134 33.0595 132.056C34.1678 131.948 35.2764 131.839 36.3344 132.444C39.1144 134.024 40.991 134.867 41.9644 134.974C42.1751 134.993 42.4501 135.031 42.6663 135.06L42.6944 135.064C45.7251 135.485 47.9336 137.448 50.1423 139.41C52.707 141.689 55.2719 143.968 59.1244 143.834C62.3144 138.514 64.2844 144.894 64.9844 147.884C65.131 148.511 64.6044 150.137 63.4044 152.764C63.3844 152.834 61.6444 159.924 62.3944 161.254C62.4168 161.295 62.4404 161.339 62.4647 161.384L62.4655 161.385L62.466 161.386C62.5712 161.582 62.6911 161.804 62.8044 161.974C65.1544 165.464 74.8144 175.014 74.8844 175.074C76.1692 176.185 77.6999 176.827 79.2298 177.469C80.5102 178.006 81.7899 178.543 82.9244 179.354C84.8144 180.714 86.2344 183.384 86.9144 186.874C86.9444 187.034 90.6444 203.624 97.0844 212.684C105.254 224.174 113.154 222.904 113.224 222.884C108.151 220.271 105.854 217.891 106.334 215.744C105.628 214.991 104.611 212.784 103.284 209.124C103.491 209.057 104.071 209.041 105.024 209.074C105.018 208.974 104.438 208.124 103.284 206.524C104.171 205.731 104.584 205.021 104.524 204.394C104.574 204.364 104.632 204.326 104.69 204.289L104.736 204.259C104.763 204.241 104.79 204.224 104.815 204.208C104.828 204.2 104.842 204.192 104.854 204.184C107.214 204.904 108.004 202.954 107.394 202.064L106.704 201.084C112.074 200.934 114.364 187.944 114.374 187.814C115.144 186.154 117.174 185.174 118.004 184.824C119.127 184.36 119.596 183.395 120.067 182.428C120.397 181.75 120.728 181.071 121.284 180.564C121.884 180.014 122.434 180.004 122.884 180.064L122.892 180.065C123.675 180.164 123.735 180.172 123.834 179.434C123.97 178.429 123.965 177.42 123.96 176.412C123.957 175.785 123.954 175.159 123.984 174.534C123.998 174.229 123.947 173.921 123.897 173.613C123.796 173 123.695 172.386 124.094 171.794L124.098 171.788C124.795 170.763 125.053 170.383 124.564 169.704C124.474 169.574 124.374 169.384 124.334 169.234C128.834 167.594 130.424 162.724 130.434 162.684V162.504C130.384 162.234 130.249 162.002 130.114 161.769C129.979 161.537 129.844 161.304 129.794 161.034L129.724 161.054ZM17.0144 59.494C18.6044 58.974 20.2844 58.474 22.0144 58.004C20.2944 58.474 18.6144 58.974 17.0144 59.494ZM67.9944 152.194C69.7502 151.969 71.5359 151.759 73.3838 151.545C71.6543 151.747 69.8683 151.963 67.9944 152.194ZM113.534 180.654L113.507 180.385C113.403 179.362 113.146 176.846 112.774 172.704C113.022 175.351 113.27 177.988 113.547 180.751C113.541 180.717 113.534 180.684 113.534 180.654Z" fill="url(#paint57_linear_156_1592)" fill-opacity="0.6"/>
<path d="M74.7942 131.384C74.0442 131.254 73.2442 130.464 73.8642 130.044C74.1442 129.974 74.3542 129.924 75.7642 130.364C77.0342 130.764 77.1642 130.974 77.1242 131.064C77.0442 131.234 75.3342 131.474 74.7942 131.384Z" fill="url(#paint58_linear_156_1592)" fill-opacity="0.6"/>
<g opacity="0.8" filter="url(#filter0_f_156_1592)">
<path d="M184.868 59.5C184.868 60.8807 183.749 62 182.368 62C180.987 62 179.868 60.8807 179.868 59.5C179.868 58.1193 180.987 57 182.368 57C183.749 57 184.868 58.1193 184.868 59.5Z" fill="#0166FF"/>
</g>
<circle opacity="0.75" cx="182.368" cy="59.5" r="1" fill="white"/>
<g opacity="0.8" filter="url(#filter1_f_156_1592)">
<path d="M179.868 78.5C179.868 79.8807 178.749 81 177.368 81C175.987 81 174.868 79.8807 174.868 78.5C174.868 77.1193 175.987 76 177.368 76C178.749 76 179.868 77.1193 179.868 78.5Z" fill="#0166FF"/>
</g>
<circle opacity="0.75" cx="177.368" cy="78.5" r="1" fill="white"/>
<g opacity="0.8" filter="url(#filter2_f_156_1592)">
<path d="M174.868 99.5C174.868 100.881 173.749 102 172.368 102C170.987 102 169.868 100.881 169.868 99.5C169.868 98.1193 170.987 97 172.368 97C173.749 97 174.868 98.1193 174.868 99.5Z" fill="#0166FF"/>
</g>
<circle opacity="0.75" cx="172.368" cy="99.5" r="1" fill="white"/>
<g opacity="0.2">
<g opacity="0.8" filter="url(#filter3_f_156_1592)">
<path d="M202.868 177.5C202.868 178.881 201.749 180 200.368 180C198.987 180 197.868 178.881 197.868 177.5C197.868 176.119 198.987 175 200.368 175C201.749 175 202.868 176.119 202.868 177.5Z" fill="#0166FF"/>
</g>
<circle opacity="0.75" cx="200.368" cy="177.5" r="1" fill="white"/>
</g>
<g opacity="0.2">
<g opacity="0.8" filter="url(#filter4_f_156_1592)">
<path d="M112.868 194.5C112.868 195.881 111.749 197 110.368 197C108.987 197 107.868 195.881 107.868 194.5C107.868 193.119 108.987 192 110.368 192C111.749 192 112.868 193.119 112.868 194.5Z" fill="#0166FF"/>
</g>
<circle opacity="0.75" cx="110.368" cy="194.5" r="1" fill="white"/>
</g>
<g opacity="0.7">
<g opacity="0.8" filter="url(#filter5_f_156_1592)">
<path d="M30.868 127.5C30.868 128.881 29.7488 130 28.368 130C26.9873 130 25.868 128.881 25.868 127.5C25.868 126.119 26.9873 125 28.368 125C29.7488 125 30.868 126.119 30.868 127.5Z" fill="#0166FF"/>
</g>
<circle opacity="0.75" cx="28.368" cy="127.5" r="1" fill="white"/>
</g>
<g opacity="0.8" filter="url(#filter6_f_156_1592)">
<path d="M66.868 75.5C66.868 76.8807 65.7488 78 64.368 78C62.9873 78 61.868 76.8807 61.868 75.5C61.868 74.1193 62.9873 73 64.368 73C65.7488 73 66.868 74.1193 66.868 75.5Z" fill="#0166FF"/>
</g>
<circle opacity="0.75" cx="64.368" cy="75.5" r="1" fill="white"/>
<g opacity="0.8" filter="url(#filter7_f_156_1592)">
<path d="M8.86804 97.5C8.86804 98.8807 7.74875 100 6.36804 100C4.98733 100 3.86804 98.8807 3.86804 97.5C3.86804 96.1193 4.98733 95 6.36804 95C7.74875 95 8.86804 96.1193 8.86804 97.5Z" fill="#0166FF"/>
</g>
<circle opacity="0.75" cx="6.36804" cy="97.5" r="1" fill="white"/>
<g opacity="0.8" filter="url(#filter8_f_156_1592)">
<path d="M178.868 52.5C178.868 53.8807 177.749 55 176.368 55C174.987 55 173.868 53.8807 173.868 52.5C173.868 51.1193 174.987 50 176.368 50C177.749 50 178.868 51.1193 178.868 52.5Z" fill="#0166FF"/>
</g>
<circle opacity="0.75" cx="176.368" cy="52.5" r="1" fill="white"/>
<g opacity="0.8" filter="url(#filter9_f_156_1592)">
<path d="M209.868 72.5C209.868 73.8807 208.749 75 207.368 75C205.987 75 204.868 73.8807 204.868 72.5C204.868 71.1193 205.987 70 207.368 70C208.749 70 209.868 71.1193 209.868 72.5Z" fill="#0166FF"/>
</g>
<circle opacity="0.75" cx="207.368" cy="72.5" r="1" fill="white"/>
<g opacity="0.8" filter="url(#filter10_f_156_1592)">
<path d="M190.868 43.5C190.868 44.8807 189.749 46 188.368 46C186.987 46 185.868 44.8807 185.868 43.5C185.868 42.1193 186.987 41 188.368 41C189.749 41 190.868 42.1193 190.868 43.5Z" fill="#0166FF"/>
</g>
<circle opacity="0.75" cx="188.368" cy="43.5" r="1" fill="white"/>
<g opacity="0.8">
<g opacity="0.8" filter="url(#filter11_f_156_1592)">
<path d="M217.868 105.5C217.868 106.881 216.749 108 215.368 108C213.987 108 212.868 106.881 212.868 105.5C212.868 104.119 213.987 103 215.368 103C216.749 103 217.868 104.119 217.868 105.5Z" fill="#0166FF"/>
</g>
<circle opacity="0.75" cx="215.368" cy="105.5" r="1" fill="white"/>
</g>
<defs>
<filter id="filter0_f_156_1592" x="176.868" y="54" width="11" height="11" filterUnits="userSpaceOnUse" color-interpolation-filters="sRGB">
<feFlood flood-opacity="0" result="BackgroundImageFix"/>
<feBlend mode="normal" in="SourceGraphic" in2="BackgroundImageFix" result="shape"/>
<feGaussianBlur stdDeviation="1.5" result="effect1_foregroundBlur_156_1592"/>
</filter>
<filter id="filter1_f_156_1592" x="171.868" y="73" width="11" height="11" filterUnits="userSpaceOnUse" color-interpolation-filters="sRGB">
<feFlood flood-opacity="0" result="BackgroundImageFix"/>
<feBlend mode="normal" in="SourceGraphic" in2="BackgroundImageFix" result="shape"/>
<feGaussianBlur stdDeviation="1.5" result="effect1_foregroundBlur_156_1592"/>
</filter>
<filter id="filter2_f_156_1592" x="166.868" y="94" width="11" height="11" filterUnits="userSpaceOnUse" color-interpolation-filters="sRGB">
<feFlood flood-opacity="0" result="BackgroundImageFix"/>
<feBlend mode="normal" in="SourceGraphic" in2="BackgroundImageFix" result="shape"/>
<feGaussianBlur stdDeviation="1.5" result="effect1_foregroundBlur_156_1592"/>
</filter>
<filter id="filter3_f_156_1592" x="194.868" y="172" width="11" height="11" filterUnits="userSpaceOnUse" color-interpolation-filters="sRGB">
<feFlood flood-opacity="0" result="BackgroundImageFix"/>
<feBlend mode="normal" in="SourceGraphic" in2="BackgroundImageFix" result="shape"/>
<feGaussianBlur stdDeviation="1.5" result="effect1_foregroundBlur_156_1592"/>
</filter>
<filter id="filter4_f_156_1592" x="104.868" y="189" width="11" height="11" filterUnits="userSpaceOnUse" color-interpolation-filters="sRGB">
<feFlood flood-opacity="0" result="BackgroundImageFix"/>
<feBlend mode="normal" in="SourceGraphic" in2="BackgroundImageFix" result="shape"/>
<feGaussianBlur stdDeviation="1.5" result="effect1_foregroundBlur_156_1592"/>
</filter>
<filter id="filter5_f_156_1592" x="22.868" y="122" width="11" height="11" filterUnits="userSpaceOnUse" color-interpolation-filters="sRGB">
<feFlood flood-opacity="0" result="BackgroundImageFix"/>
<feBlend mode="normal" in="SourceGraphic" in2="BackgroundImageFix" result="shape"/>
<feGaussianBlur stdDeviation="1.5" result="effect1_foregroundBlur_156_1592"/>
</filter>
<filter id="filter6_f_156_1592" x="58.868" y="70" width="11" height="11" filterUnits="userSpaceOnUse" color-interpolation-filters="sRGB">
<feFlood flood-opacity="0" result="BackgroundImageFix"/>
<feBlend mode="normal" in="SourceGraphic" in2="BackgroundImageFix" result="shape"/>
<feGaussianBlur stdDeviation="1.5" result="effect1_foregroundBlur_156_1592"/>
</filter>
<filter id="filter7_f_156_1592" x="0.868042" y="92" width="11" height="11" filterUnits="userSpaceOnUse" color-interpolation-filters="sRGB">
<feFlood flood-opacity="0" result="BackgroundImageFix"/>
<feBlend mode="normal" in="SourceGraphic" in2="BackgroundImageFix" result="shape"/>
<feGaussianBlur stdDeviation="1.5" result="effect1_foregroundBlur_156_1592"/>
</filter>
<filter id="filter8_f_156_1592" x="170.868" y="47" width="11" height="11" filterUnits="userSpaceOnUse" color-interpolation-filters="sRGB">
<feFlood flood-opacity="0" result="BackgroundImageFix"/>
<feBlend mode="normal" in="SourceGraphic" in2="BackgroundImageFix" result="shape"/>
<feGaussianBlur stdDeviation="1.5" result="effect1_foregroundBlur_156_1592"/>
</filter>
<filter id="filter9_f_156_1592" x="201.868" y="67" width="11" height="11" filterUnits="userSpaceOnUse" color-interpolation-filters="sRGB">
<feFlood flood-opacity="0" result="BackgroundImageFix"/>
<feBlend mode="normal" in="SourceGraphic" in2="BackgroundImageFix" result="shape"/>
<feGaussianBlur stdDeviation="1.5" result="effect1_foregroundBlur_156_1592"/>
</filter>
<filter id="filter10_f_156_1592" x="182.868" y="38" width="11" height="11" filterUnits="userSpaceOnUse" color-interpolation-filters="sRGB">
<feFlood flood-opacity="0" result="BackgroundImageFix"/>
<feBlend mode="normal" in="SourceGraphic" in2="BackgroundImageFix" result="shape"/>
<feGaussianBlur stdDeviation="1.5" result="effect1_foregroundBlur_156_1592"/>
</filter>
<filter id="filter11_f_156_1592" x="209.868" y="100" width="11" height="11" filterUnits="userSpaceOnUse" color-interpolation-filters="sRGB">
<feFlood flood-opacity="0" result="BackgroundImageFix"/>
<feBlend mode="normal" in="SourceGraphic" in2="BackgroundImageFix" result="shape"/>
<feGaussianBlur stdDeviation="1.5" result="effect1_foregroundBlur_156_1592"/>
</filter>
<linearGradient id="paint0_linear_156_1592" x1="115.422" y1="0" x2="115.422" y2="222.935" gradientUnits="userSpaceOnUse">
<stop stop-color="#5E6678"/>
<stop offset="1" stop-color="#2F3548" stop-opacity="0"/>
</linearGradient>
<linearGradient id="paint1_linear_156_1592" x1="115.422" y1="0" x2="115.422" y2="222.935" gradientUnits="userSpaceOnUse">
<stop stop-color="#5E6678"/>
<stop offset="1" stop-color="#2F3548" stop-opacity="0"/>
</linearGradient>
<linearGradient id="paint2_linear_156_1592" x1="115.422" y1="0" x2="115.422" y2="222.935" gradientUnits="userSpaceOnUse">
<stop stop-color="#5E6678"/>
<stop offset="1" stop-color="#2F3548" stop-opacity="0"/>
</linearGradient>
<linearGradient id="paint3_linear_156_1592" x1="115.422" y1="0" x2="115.422" y2="222.935" gradientUnits="userSpaceOnUse">
<stop stop-color="#5E6678"/>
<stop offset="1" stop-color="#2F3548" stop-opacity="0"/>
</linearGradient>
<linearGradient id="paint4_linear_156_1592" x1="115.422" y1="0" x2="115.422" y2="222.935" gradientUnits="userSpaceOnUse">
<stop stop-color="#5E6678"/>
<stop offset="1" stop-color="#2F3548" stop-opacity="0"/>
</linearGradient>
<linearGradient id="paint5_linear_156_1592" x1="115.422" y1="0" x2="115.422" y2="222.935" gradientUnits="userSpaceOnUse">
<stop stop-color="#5E6678"/>
<stop offset="1" stop-color="#2F3548" stop-opacity="0"/>
</linearGradient>
<linearGradient id="paint6_linear_156_1592" x1="115.422" y1="0" x2="115.422" y2="222.935" gradientUnits="userSpaceOnUse">
<stop stop-color="#5E6678"/>
<stop offset="1" stop-color="#2F3548" stop-opacity="0"/>
</linearGradient>
<linearGradient id="paint7_linear_156_1592" x1="115.422" y1="0" x2="115.422" y2="222.935" gradientUnits="userSpaceOnUse">
<stop stop-color="#5E6678"/>
<stop offset="1" stop-color="#2F3548" stop-opacity="0"/>
</linearGradient>
<linearGradient id="paint8_linear_156_1592" x1="115.422" y1="0" x2="115.422" y2="222.935" gradientUnits="userSpaceOnUse">
<stop stop-color="#5E6678"/>
<stop offset="1" stop-color="#2F3548" stop-opacity="0"/>
</linearGradient>
<linearGradient id="paint9_linear_156_1592" x1="115.422" y1="0" x2="115.422" y2="222.935" gradientUnits="userSpaceOnUse">
<stop stop-color="#5E6678"/>
<stop offset="1" stop-color="#2F3548" stop-opacity="0"/>
</linearGradient>
<linearGradient id="paint10_linear_156_1592" x1="115.422" y1="0" x2="115.422" y2="222.935" gradientUnits="userSpaceOnUse">
<stop stop-color="#5E6678"/>
<stop offset="1" stop-color="#2F3548" stop-opacity="0"/>
</linearGradient>
<linearGradient id="paint11_linear_156_1592" x1="115.422" y1="0" x2="115.422" y2="222.935" gradientUnits="userSpaceOnUse">
<stop stop-color="#5E6678"/>
<stop offset="1" stop-color="#2F3548" stop-opacity="0"/>
</linearGradient>
<linearGradient id="paint12_linear_156_1592" x1="115.422" y1="0" x2="115.422" y2="222.935" gradientUnits="userSpaceOnUse">
<stop stop-color="#5E6678"/>
<stop offset="1" stop-color="#2F3548" stop-opacity="0"/>
</linearGradient>
<linearGradient id="paint13_linear_156_1592" x1="115.422" y1="0" x2="115.422" y2="222.935" gradientUnits="userSpaceOnUse">
<stop stop-color="#5E6678"/>
<stop offset="1" stop-color="#2F3548" stop-opacity="0"/>
</linearGradient>
<linearGradient id="paint14_linear_156_1592" x1="115.422" y1="0" x2="115.422" y2="222.935" gradientUnits="userSpaceOnUse">
<stop stop-color="#5E6678"/>
<stop offset="1" stop-color="#2F3548" stop-opacity="0"/>
</linearGradient>
<linearGradient id="paint15_linear_156_1592" x1="115.422" y1="0" x2="115.422" y2="222.935" gradientUnits="userSpaceOnUse">
<stop stop-color="#5E6678"/>
<stop offset="1" stop-color="#2F3548" stop-opacity="0"/>
</linearGradient>
<linearGradient id="paint16_linear_156_1592" x1="115.422" y1="0" x2="115.422" y2="222.935" gradientUnits="userSpaceOnUse">
<stop stop-color="#5E6678"/>
<stop offset="1" stop-color="#2F3548" stop-opacity="0"/>
</linearGradient>
<linearGradient id="paint17_linear_156_1592" x1="115.422" y1="0" x2="115.422" y2="222.935" gradientUnits="userSpaceOnUse">
<stop stop-color="#5E6678"/>
<stop offset="1" stop-color="#2F3548" stop-opacity="0"/>
</linearGradient>
<linearGradient id="paint18_linear_156_1592" x1="115.422" y1="0" x2="115.422" y2="222.935" gradientUnits="userSpaceOnUse">
<stop stop-color="#5E6678"/>
<stop offset="1" stop-color="#2F3548" stop-opacity="0"/>
</linearGradient>
<linearGradient id="paint19_linear_156_1592" x1="115.422" y1="0" x2="115.422" y2="222.935" gradientUnits="userSpaceOnUse">
<stop stop-color="#5E6678"/>
<stop offset="1" stop-color="#2F3548" stop-opacity="0"/>
</linearGradient>
<linearGradient id="paint20_linear_156_1592" x1="115.422" y1="0" x2="115.422" y2="222.935" gradientUnits="userSpaceOnUse">
<stop stop-color="#5E6678"/>
<stop offset="1" stop-color="#2F3548" stop-opacity="0"/>
</linearGradient>
<linearGradient id="paint21_linear_156_1592" x1="115.422" y1="0" x2="115.422" y2="222.935" gradientUnits="userSpaceOnUse">
<stop stop-color="#5E6678"/>
<stop offset="1" stop-color="#2F3548" stop-opacity="0"/>
</linearGradient>
<linearGradient id="paint22_linear_156_1592" x1="115.422" y1="0" x2="115.422" y2="222.935" gradientUnits="userSpaceOnUse">
<stop stop-color="#5E6678"/>
<stop offset="1" stop-color="#2F3548" stop-opacity="0"/>
</linearGradient>
<linearGradient id="paint23_linear_156_1592" x1="115.422" y1="0" x2="115.422" y2="222.935" gradientUnits="userSpaceOnUse">
<stop stop-color="#5E6678"/>
<stop offset="1" stop-color="#2F3548" stop-opacity="0"/>
</linearGradient>
<linearGradient id="paint24_linear_156_1592" x1="115.422" y1="0" x2="115.422" y2="222.935" gradientUnits="userSpaceOnUse">
<stop stop-color="#5E6678"/>
<stop offset="1" stop-color="#2F3548" stop-opacity="0"/>
</linearGradient>
<linearGradient id="paint25_linear_156_1592" x1="115.422" y1="0" x2="115.422" y2="222.935" gradientUnits="userSpaceOnUse">
<stop stop-color="#5E6678"/>
<stop offset="1" stop-color="#2F3548" stop-opacity="0"/>
</linearGradient>
<linearGradient id="paint26_linear_156_1592" x1="115.422" y1="0" x2="115.422" y2="222.935" gradientUnits="userSpaceOnUse">
<stop stop-color="#5E6678"/>
<stop offset="1" stop-color="#2F3548" stop-opacity="0"/>
</linearGradient>
<linearGradient id="paint27_linear_156_1592" x1="115.422" y1="0" x2="115.422" y2="222.935" gradientUnits="userSpaceOnUse">
<stop stop-color="#5E6678"/>
<stop offset="1" stop-color="#2F3548" stop-opacity="0"/>
</linearGradient>
<linearGradient id="paint28_linear_156_1592" x1="115.422" y1="0" x2="115.422" y2="222.935" gradientUnits="userSpaceOnUse">
<stop stop-color="#5E6678"/>
<stop offset="1" stop-color="#2F3548" stop-opacity="0"/>
</linearGradient>
<linearGradient id="paint29_linear_156_1592" x1="115.422" y1="0" x2="115.422" y2="222.935" gradientUnits="userSpaceOnUse">
<stop stop-color="#5E6678"/>
<stop offset="1" stop-color="#2F3548" stop-opacity="0"/>
</linearGradient>
<linearGradient id="paint30_linear_156_1592" x1="115.422" y1="0" x2="115.422" y2="222.935" gradientUnits="userSpaceOnUse">
<stop stop-color="#5E6678"/>
<stop offset="1" stop-color="#2F3548" stop-opacity="0"/>
</linearGradient>
<linearGradient id="paint31_linear_156_1592" x1="115.422" y1="0" x2="115.422" y2="222.935" gradientUnits="userSpaceOnUse">
<stop stop-color="#5E6678"/>
<stop offset="1" stop-color="#2F3548" stop-opacity="0"/>
</linearGradient>
<linearGradient id="paint32_linear_156_1592" x1="115.422" y1="0" x2="115.422" y2="222.935" gradientUnits="userSpaceOnUse">
<stop stop-color="#5E6678"/>
<stop offset="1" stop-color="#2F3548" stop-opacity="0"/>
</linearGradient>
<linearGradient id="paint33_linear_156_1592" x1="115.422" y1="0" x2="115.422" y2="222.935" gradientUnits="userSpaceOnUse">
<stop stop-color="#5E6678"/>
<stop offset="1" stop-color="#2F3548" stop-opacity="0"/>
</linearGradient>
<linearGradient id="paint34_linear_156_1592" x1="115.422" y1="0" x2="115.422" y2="222.935" gradientUnits="userSpaceOnUse">
<stop stop-color="#5E6678"/>
<stop offset="1" stop-color="#2F3548" stop-opacity="0"/>
</linearGradient>
<linearGradient id="paint35_linear_156_1592" x1="115.422" y1="0" x2="115.422" y2="222.935" gradientUnits="userSpaceOnUse">
<stop stop-color="#5E6678"/>
<stop offset="1" stop-color="#2F3548" stop-opacity="0"/>
</linearGradient>
<linearGradient id="paint36_linear_156_1592" x1="115.422" y1="0" x2="115.422" y2="222.935" gradientUnits="userSpaceOnUse">
<stop stop-color="#5E6678"/>
<stop offset="1" stop-color="#2F3548" stop-opacity="0"/>
</linearGradient>
<linearGradient id="paint37_linear_156_1592" x1="115.422" y1="0" x2="115.422" y2="222.935" gradientUnits="userSpaceOnUse">
<stop stop-color="#5E6678"/>
<stop offset="1" stop-color="#2F3548" stop-opacity="0"/>
</linearGradient>
<linearGradient id="paint38_linear_156_1592" x1="115.422" y1="0" x2="115.422" y2="222.935" gradientUnits="userSpaceOnUse">
<stop stop-color="#5E6678"/>
<stop offset="1" stop-color="#2F3548" stop-opacity="0"/>
</linearGradient>
<linearGradient id="paint39_linear_156_1592" x1="115.422" y1="0" x2="115.422" y2="222.935" gradientUnits="userSpaceOnUse">
<stop stop-color="#5E6678"/>
<stop offset="1" stop-color="#2F3548" stop-opacity="0"/>
</linearGradient>
<linearGradient id="paint40_linear_156_1592" x1="115.422" y1="0" x2="115.422" y2="222.935" gradientUnits="userSpaceOnUse">
<stop stop-color="#5E6678"/>
<stop offset="1" stop-color="#2F3548" stop-opacity="0"/>
</linearGradient>
<linearGradient id="paint41_linear_156_1592" x1="115.422" y1="0" x2="115.422" y2="222.935" gradientUnits="userSpaceOnUse">
<stop stop-color="#5E6678"/>
<stop offset="1" stop-color="#2F3548" stop-opacity="0"/>
</linearGradient>
<linearGradient id="paint42_linear_156_1592" x1="115.422" y1="0" x2="115.422" y2="222.935" gradientUnits="userSpaceOnUse">
<stop stop-color="#5E6678"/>
<stop offset="1" stop-color="#2F3548" stop-opacity="0"/>
</linearGradient>
<linearGradient id="paint43_linear_156_1592" x1="115.422" y1="0" x2="115.422" y2="222.935" gradientUnits="userSpaceOnUse">
<stop stop-color="#5E6678"/>
<stop offset="1" stop-color="#2F3548" stop-opacity="0"/>
</linearGradient>
<linearGradient id="paint44_linear_156_1592" x1="115.422" y1="0" x2="115.422" y2="222.935" gradientUnits="userSpaceOnUse">
<stop stop-color="#5E6678"/>
<stop offset="1" stop-color="#2F3548" stop-opacity="0"/>
</linearGradient>
<linearGradient id="paint45_linear_156_1592" x1="115.422" y1="0" x2="115.422" y2="222.935" gradientUnits="userSpaceOnUse">
<stop stop-color="#5E6678"/>
<stop offset="1" stop-color="#2F3548" stop-opacity="0"/>
</linearGradient>
<linearGradient id="paint46_linear_156_1592" x1="115.422" y1="0" x2="115.422" y2="222.935" gradientUnits="userSpaceOnUse">
<stop stop-color="#5E6678"/>
<stop offset="1" stop-color="#2F3548" stop-opacity="0"/>
</linearGradient>
<linearGradient id="paint47_linear_156_1592" x1="115.422" y1="0" x2="115.422" y2="222.935" gradientUnits="userSpaceOnUse">
<stop stop-color="#5E6678"/>
<stop offset="1" stop-color="#2F3548" stop-opacity="0"/>
</linearGradient>
<linearGradient id="paint48_linear_156_1592" x1="115.422" y1="0" x2="115.422" y2="222.935" gradientUnits="userSpaceOnUse">
<stop stop-color="#5E6678"/>
<stop offset="1" stop-color="#2F3548" stop-opacity="0"/>
</linearGradient>
<linearGradient id="paint49_linear_156_1592" x1="115.422" y1="0" x2="115.422" y2="222.935" gradientUnits="userSpaceOnUse">
<stop stop-color="#5E6678"/>
<stop offset="1" stop-color="#2F3548" stop-opacity="0"/>
</linearGradient>
<linearGradient id="paint50_linear_156_1592" x1="115.422" y1="0" x2="115.422" y2="222.935" gradientUnits="userSpaceOnUse">
<stop stop-color="#5E6678"/>
<stop offset="1" stop-color="#2F3548" stop-opacity="0"/>
</linearGradient>
<linearGradient id="paint51_linear_156_1592" x1="115.422" y1="0" x2="115.422" y2="222.935" gradientUnits="userSpaceOnUse">
<stop stop-color="#5E6678"/>
<stop offset="1" stop-color="#2F3548" stop-opacity="0"/>
</linearGradient>
<linearGradient id="paint52_linear_156_1592" x1="115.422" y1="0" x2="115.422" y2="222.935" gradientUnits="userSpaceOnUse">
<stop stop-color="#5E6678"/>
<stop offset="1" stop-color="#2F3548" stop-opacity="0"/>
</linearGradient>
<linearGradient id="paint53_linear_156_1592" x1="115.422" y1="0" x2="115.422" y2="222.935" gradientUnits="userSpaceOnUse">
<stop stop-color="#5E6678"/>
<stop offset="1" stop-color="#2F3548" stop-opacity="0"/>
</linearGradient>
<linearGradient id="paint54_linear_156_1592" x1="115.422" y1="0" x2="115.422" y2="222.935" gradientUnits="userSpaceOnUse">
<stop stop-color="#5E6678"/>
<stop offset="1" stop-color="#2F3548" stop-opacity="0"/>
</linearGradient>
<linearGradient id="paint55_linear_156_1592" x1="115.422" y1="0" x2="115.422" y2="222.935" gradientUnits="userSpaceOnUse">
<stop stop-color="#5E6678"/>
<stop offset="1" stop-color="#2F3548" stop-opacity="0"/>
</linearGradient>
<linearGradient id="paint56_linear_156_1592" x1="115.422" y1="0" x2="115.422" y2="222.935" gradientUnits="userSpaceOnUse">
<stop stop-color="#5E6678"/>
<stop offset="1" stop-color="#2F3548" stop-opacity="0"/>
</linearGradient>
<linearGradient id="paint57_linear_156_1592" x1="115.422" y1="0" x2="115.422" y2="222.935" gradientUnits="userSpaceOnUse">
<stop stop-color="#5E6678"/>
<stop offset="1" stop-color="#2F3548" stop-opacity="0"/>
</linearGradient>
<linearGradient id="paint58_linear_156_1592" x1="115.422" y1="0" x2="115.422" y2="222.935" gradientUnits="userSpaceOnUse">
<stop stop-color="#5E6678"/>
<stop offset="1" stop-color="#2F3548" stop-opacity="0"/>
</linearGradient>
</defs>
</svg>
