<svg width="107" height="25" viewBox="0 0 107 25" fill="none" xmlns="http://www.w3.org/2000/svg">
<mask id="mask0_750_4796" style="mask-type:luminance" maskUnits="userSpaceOnUse" x="0" y="0" width="107" height="25">
<path d="M0 0H107V25H0V0Z" fill="white"/>
</mask>
<g mask="url(#mask0_750_4796)">
<path fill-rule="evenodd" clip-rule="evenodd" d="M88.5819 7.42973H91.6207V4.32861H88.5819V7.42973ZM72.4303 12.5941C73.011 11.0228 74.4978 9.90405 76.2413 9.90405C77.9846 9.90405 79.4715 11.0228 80.0524 12.5941H72.4303ZM76.2413 7.02076C72.4323 7.02076 69.3435 10.1725 69.3435 14.0604C69.3435 17.9483 72.4323 21.0995 76.2413 21.0995C78.8552 21.0995 81.1291 19.6164 82.2996 17.4302L79.7507 16.1683C79.0425 17.3936 77.7363 18.2162 76.2413 18.2162C74.3525 18.2162 72.7647 16.904 72.304 15.1242H80.1784C80.1779 15.1255 80.1777 15.1273 80.1774 15.1289H83.0614C83.1135 14.7803 83.1404 14.4235 83.1404 14.0604C83.1404 10.1725 80.0516 7.02076 76.2413 7.02076ZM83.9414 20.7243H86.9802V17.6231H83.9414V20.7243ZM88.5819 20.7243H91.6207V8.79306H88.5819V20.7243ZM100.102 18.2162C97.853 18.2162 96.0297 16.3555 96.0297 14.0604C96.0297 11.7648 97.853 9.90405 100.102 9.90405C102.351 9.90405 104.175 11.7648 104.175 14.0604C104.175 16.3555 102.351 18.2162 100.102 18.2162ZM100.101 7.02076C96.2919 7.02076 93.2031 10.1725 93.2031 14.0604C93.2031 17.9483 96.2919 21.0995 100.101 21.0995C103.911 21.0995 107 17.9483 107 14.0604C107 10.1725 103.911 7.02076 100.101 7.02076ZM36.5676 11.4655V14.6719H40.8165C40.5946 15.5881 40.156 16.4092 39.5271 17.065C38.5785 18.0544 37.2631 18.5995 35.823 18.5995C32.8348 18.5995 30.4034 16.1185 30.4034 13.0687C30.4034 10.0189 32.8348 7.53762 35.823 7.53762C37.4237 7.53762 38.8951 8.23678 39.9151 9.44269L42.3478 7.41418C40.7349 5.48525 38.3419 4.33095 35.823 4.33095C31.1022 4.33095 27.2615 8.25079 27.2615 13.0687C27.2615 17.8866 31.1022 21.8062 35.823 21.8062C38.1152 21.8062 40.2282 20.9634 41.773 19.3524C43.0693 18.0002 43.9284 16.1141 44.0936 14.2246C44.1742 13.3029 44.1816 12.3874 44.134 11.4655H36.5676ZM52.0456 18.217C49.7963 18.217 47.9728 16.3558 47.9728 14.0604C47.9728 11.7645 49.7963 9.90379 52.0456 9.90379C54.295 9.90379 56.1186 11.7645 56.1186 14.0604C56.1186 16.3558 54.295 18.217 52.0456 18.217ZM56.1191 8.39264C54.9773 7.5384 53.5695 7.03269 52.0456 7.03269C48.2365 7.03269 45.1487 10.1841 45.1487 14.0713C45.1487 17.959 48.2365 21.1099 52.0456 21.1099C53.5695 21.1099 54.9773 20.6044 56.1191 19.7502V20.7243H58.9426V7.41858H56.1191V8.39264ZM65.0039 4.32887H62.1801V7.42973H60.4877V10.1494H62.1801V17.2666C62.1801 18.0015 62.2706 18.6198 62.45 19.105C62.6269 19.585 62.8972 19.9608 63.2187 20.2543C63.5445 20.5523 63.9267 20.7844 64.3798 20.9162C64.8402 21.0484 65.3482 21.0995 65.8852 21.0995C66.4409 21.0995 66.9365 21.0406 67.3593 20.9242C67.7519 20.8166 68.1283 20.6644 68.4785 20.4709V18.2795C67.9214 18.5254 67.4008 18.6143 66.8066 18.6426C66.1795 18.6727 65.8084 18.4898 65.4997 18.1895C65.1762 17.8749 65.0039 17.4649 65.0039 16.7772V10.1494H68.4785V7.42973H65.0039V4.32887Z" fill="white"/>
</g>
<mask id="mask1_750_4796" style="mask-type:luminance" maskUnits="userSpaceOnUse" x="0" y="0" width="107" height="25">
<path d="M0 0H107V25H0V0Z" fill="white"/>
</mask>
<g mask="url(#mask1_750_4796)">
<path fill-rule="evenodd" clip-rule="evenodd" d="M12.2488 19.3751C8.52827 19.3751 5.51212 16.2974 5.51212 12.5002C5.51212 8.70327 8.52827 5.62497 12.2488 5.62497V0C5.48391 0 0 5.59644 0 12.5002C0 19.4037 5.48391 25.0001 12.2488 25.0001C19.0135 25.0001 24.4977 19.4037 24.4977 12.5002H18.9856C18.9856 16.2974 15.9694 19.3751 12.2488 19.3751Z" fill="#2354E6"/>
</g>
<mask id="mask2_750_4796" style="mask-type:luminance" maskUnits="userSpaceOnUse" x="0" y="0" width="107" height="25">
<path d="M0 0H107V25H0V0Z" fill="white"/>
</mask>
<g mask="url(#mask2_750_4796)">
<path fill-rule="evenodd" clip-rule="evenodd" d="M12.2488 12.5H18.9855V5.625H12.2488V12.5Z" fill="#17E6A1"/>
</g>
</svg>
