<svg width="381" height="209" viewBox="0 0 381 209" fill="none" xmlns="http://www.w3.org/2000/svg">
<path d="M1.86804 206.19L9.72221 186.553C17.5764 166.916 29.3576 204.887 45.066 206.19C60.7743 207.494 80.4097 172.13 96.118 191.604C111.826 211.078 127.535 208.145 143.243 186.268C158.951 164.391 174.66 123.57 190.368 123.745C206.076 123.92 221.785 165.09 237.493 153.478C253.201 141.866 268.91 59.8007 284.618 43.2817C300.326 26.7627 316.035 58.1185 331.743 59.0506C347.451 59.9828 363.16 30.4914 371.014 15.7457L378.868 1" stroke="#242156" stroke-width="4"/>
<path d="M1.86804 206.19L9.72221 186.553C17.5764 166.916 29.3576 204.887 45.066 206.19C60.7743 207.494 80.4097 172.13 96.118 191.604C111.826 211.078 127.535 208.145 143.243 186.268C158.951 164.391 174.66 123.57 190.368 123.745C206.076 123.92 221.785 165.09 237.493 153.478C246.694 146.676 255.895 115.702 265.097 87.8867" stroke="url(#paint0_linear_156_1634)" stroke-width="4"/>
<circle opacity="0.2" cx="264.983" cy="88.3776" r="12.763" fill="#27225D"/>
<defs>
<linearGradient id="paint0_linear_156_1634" x1="133.482" y1="87.8867" x2="133.482" y2="206.225" gradientUnits="userSpaceOnUse">
<stop stop-color="#6B76FE"/>
<stop offset="1" stop-color="#53FFEC"/>
</linearGradient>
</defs>
</svg>
