<svg width="69" height="21" viewBox="0 0 69 21" fill="none" xmlns="http://www.w3.org/2000/svg">
<path d="M20.2374 0H0.459882C0.337911 0 0.220931 0.0484191 0.134721 0.134722C0.0484177 0.220933 0 0.337912 0 0.459975V20.2375C0 20.3595 0.0484177 20.4765 0.134721 20.5627C0.220931 20.649 0.337911 20.6974 0.459882 20.6974H20.2374C20.3595 20.6974 20.4765 20.649 20.5627 20.5627C20.649 20.4765 20.6974 20.3595 20.6974 20.2375V0.459975C20.6974 0.337912 20.649 0.220933 20.5627 0.134722C20.4765 0.0484191 20.3595 0 20.2374 0ZM13.7982 13.3383C13.7982 13.4603 13.7498 13.5773 13.6635 13.6636C13.5773 13.7498 13.4603 13.7983 13.3383 13.7983H7.35904C7.23707 13.7983 7.12009 13.7498 7.03379 13.6636C6.94758 13.5773 6.89916 13.4603 6.89916 13.3383V7.35904C6.89916 7.23707 6.94758 7.12009 7.03379 7.03388C7.12009 6.94758 7.23707 6.89916 7.35904 6.89916H13.3383C13.4603 6.89916 13.5773 6.94758 13.6635 7.03388C13.7498 7.12009 13.7982 7.23707 13.7982 7.35904V13.3383Z" fill="white"/>
<path d="M61.6438 6.8999H55.6646C55.4105 6.8999 55.2046 7.10577 55.2046 7.35978V13.3391C55.2046 13.5931 55.4105 13.7991 55.6646 13.7991H61.6438C61.8978 13.7991 62.1037 13.5931 62.1037 13.3391V7.35978C62.1037 7.10577 61.8978 6.8999 61.6438 6.8999Z" fill="white"/>
<path d="M54.7419 0.000976562H48.7627C48.5087 0.000976562 48.3027 0.206847 48.3027 0.460951V6.44016C48.3027 6.69417 48.5087 6.90014 48.7627 6.90014H54.7419C54.996 6.90014 55.2019 6.69417 55.2019 6.44016V0.460951C55.2019 0.206847 54.996 0.000976562 54.7419 0.000976562Z" fill="white"/>
<path d="M68.5401 0.000976562H62.5608C62.3068 0.000976562 62.1008 0.206847 62.1008 0.460951V6.44016C62.1008 6.69417 62.3068 6.90014 62.5608 6.90014H68.5401C68.7941 6.90014 69 6.69417 69 6.44016V0.460951C69 0.206847 68.7941 0.000976562 68.5401 0.000976562Z" fill="white"/>
<path d="M54.7419 13.7988H48.7627C48.5087 13.7988 48.3027 14.0047 48.3027 14.2587V20.238C48.3027 20.492 48.5087 20.698 48.7627 20.698H54.7419C54.996 20.698 55.2019 20.492 55.2019 20.238V14.2587C55.2019 14.0047 54.996 13.7988 54.7419 13.7988Z" fill="white"/>
<path d="M68.5401 13.7988H62.5608C62.3068 13.7988 62.1008 14.0047 62.1008 14.2587V20.238C62.1008 20.492 62.3068 20.698 62.5608 20.698H68.5401C68.7941 20.698 69 20.492 69 20.238V14.2587C69 14.0047 68.7941 13.7988 68.5401 13.7988Z" fill="white"/>
<path d="M44.3845 0.000976562H38.4053C38.1513 0.000976562 37.9453 0.206847 37.9453 0.460951V6.44016C37.9453 6.69417 38.1513 6.90014 38.4053 6.90014H44.3845C44.6385 6.90014 44.8445 6.69417 44.8445 6.44016V0.460951C44.8445 0.206847 44.6385 0.000976562 44.3845 0.000976562Z" fill="white"/>
<path d="M44.3845 13.7988H38.4053C38.1513 13.7988 37.9453 14.0047 37.9453 14.2587V20.238C37.9453 20.492 38.1513 20.698 38.4053 20.698H44.3845C44.6385 20.698 44.8445 20.492 44.8445 20.238V14.2587C44.8445 14.0047 44.6385 13.7988 44.3845 13.7988Z" fill="white"/>
<path d="M37.9453 7.35387C37.9453 7.2319 37.8968 7.11492 37.8106 7.02871C37.7243 6.9424 37.6073 6.89399 37.4853 6.89399H31.0461V0.459975C31.0461 0.337912 30.9976 0.220933 30.9114 0.134722C30.8251 0.0484191 30.7081 0 30.5862 0H24.6069C24.4849 0 24.3679 0.0484191 24.2817 0.134722C24.1954 0.220933 24.147 0.337912 24.147 0.459975V20.2272C24.147 20.3491 24.1954 20.4661 24.2817 20.5523C24.3679 20.6386 24.4849 20.687 24.6069 20.687H30.5862C30.7081 20.687 30.8251 20.6386 30.9114 20.5523C30.9976 20.4661 31.0461 20.3491 31.0461 20.2272V13.7931H37.4853C37.6073 13.7931 37.7243 13.7446 37.8106 13.6584C37.8968 13.5721 37.9453 13.4551 37.9453 13.3332V7.35387Z" fill="white"/>
</svg>
