<svg width="45" height="45" viewBox="0 0 45 45" fill="none" xmlns="http://www.w3.org/2000/svg">
<path d="M40.7812 22.5001V28.1251C40.7812 32.0026 37.6256 35.1563 33.75 35.1563H9.02069L12.2456 38.3813C12.795 38.9306 12.795 39.8213 12.2456 40.3707C11.9719 40.6445 11.6118 40.7832 11.2518 40.7832C10.8918 40.7832 10.5318 40.6463 10.258 40.3707L4.63303 34.7457C4.50365 34.6163 4.40078 34.4609 4.32953 34.2884C4.18703 33.9453 4.18703 33.5572 4.32953 33.214C4.40078 33.0415 4.50365 32.8856 4.63303 32.7563L10.258 27.1313C10.8074 26.5819 11.6981 26.5819 12.2475 27.1313C12.7968 27.6806 12.7968 28.5713 12.2475 29.1207L9.02252 32.3457H33.75C36.075 32.3457 37.9688 30.4538 37.9688 28.1269V22.5019C37.9688 21.7257 38.5988 21.0957 39.375 21.0957C40.1512 21.0957 40.7812 21.7238 40.7812 22.5001ZM5.625 23.9063C6.40125 23.9063 7.03125 23.2763 7.03125 22.5001V16.8751C7.03125 14.5482 8.925 12.6563 11.25 12.6563H35.9793L32.7544 15.8813C32.205 16.4306 32.205 17.3213 32.7544 17.8707C33.0281 18.1445 33.3882 18.2832 33.7482 18.2832C34.1082 18.2832 34.4682 18.1463 34.742 17.8707L40.367 12.2457C40.4963 12.1163 40.5992 11.9609 40.6705 11.7884C40.813 11.4453 40.813 11.0572 40.6705 10.714C40.5992 10.5415 40.4963 10.3856 40.367 10.2563L34.742 4.63127C34.1926 4.08189 33.3019 4.08189 32.7525 4.63127C32.2032 5.18064 32.2032 6.07134 32.7525 6.62071L35.9775 9.84566H11.25C7.37438 9.84566 4.21875 12.9994 4.21875 16.8769V22.5019C4.21875 23.2763 4.84875 23.9063 5.625 23.9063Z" fill="#53FFEC"/>
</svg>
