<svg width="24" height="25" viewBox="0 0 24 25" fill="none" xmlns="http://www.w3.org/2000/svg">
<path d="M21.686 13.6367C21.148 18.5787 16.984 22.3057 12 22.3057C8.603 22.3057 5.504 20.5347 3.75 17.7417V20.5557C3.75 20.9697 3.414 21.3057 3 21.3057C2.586 21.3057 2.25 20.9697 2.25 20.5557V15.5557C2.25 15.1417 2.586 14.8057 3 14.8057H8C8.414 14.8057 8.75 15.1417 8.75 15.5557C8.75 15.9697 8.414 16.3057 8 16.3057H4.66992C6.05992 19.0317 8.877 20.8057 12 20.8057C16.217 20.8057 19.7391 17.6536 20.1951 13.4746C20.2391 13.0616 20.613 12.7666 21.021 12.8096C21.434 12.8546 21.73 13.2247 21.686 13.6367ZM21 3.80566C20.586 3.80566 20.25 4.14166 20.25 4.55566V7.36963C18.496 4.57663 15.397 2.80566 12 2.80566C7.017 2.80566 2.85296 6.53261 2.31396 11.4746C2.26896 11.8866 2.56603 12.2568 2.97803 12.3018C3.00503 12.3048 3.03306 12.3057 3.06006 12.3057C3.43806 12.3057 3.76296 12.0207 3.80396 11.6367C4.25996 7.45772 7.78302 4.30566 11.999 4.30566C15.123 4.30566 17.9391 6.07966 19.3291 8.80566H16C15.586 8.80566 15.25 9.14166 15.25 9.55566C15.25 9.96966 15.586 10.3057 16 10.3057H21C21.414 10.3057 21.75 9.96966 21.75 9.55566V4.55566C21.75 4.14166 21.414 3.80566 21 3.80566Z" fill="white"/>
</svg>
